<svg width="31" height="31" viewBox="0 0 31 31" fill="none" xmlns="http://www.w3.org/2000/svg">
<g clip-path="url(#clip0_115_1761)">
<path d="M2.84086 10.0283C2.61012 10.0283 2.38455 10.0968 2.1927 10.225C2.00084 10.3531 1.8513 10.5354 1.763 10.7485C1.6747 10.9617 1.6516 11.1963 1.69661 11.4226C1.74163 11.6489 1.85274 11.8568 2.0159 12.02C2.17906 12.1831 2.38694 12.2942 2.61326 12.3393C2.83957 12.3843 3.07414 12.3612 3.28733 12.2729C3.50051 12.1846 3.68271 12.035 3.81091 11.8432C3.9391 11.6513 4.00753 11.4257 4.00753 11.195C4.00753 10.8856 3.88461 10.5888 3.66582 10.37C3.44703 10.1513 3.15028 10.0283 2.84086 10.0283Z" fill="#FF9A42"/>
<path d="M28.8659 12.3533C29.5056 12.3533 30.0242 11.8347 30.0242 11.195C30.0242 10.5553 29.5056 10.0367 28.8659 10.0367C28.2261 10.0367 27.7075 10.5553 27.7075 11.195C27.7075 11.8347 28.2261 12.3533 28.8659 12.3533Z" fill="#FF9A42"/>
<path d="M15.8575 5.41167C16.087 5.41332 16.3117 5.34679 16.5033 5.22052C16.6949 5.09425 16.8447 4.91392 16.9336 4.70242C17.0226 4.49091 17.0467 4.25775 17.0029 4.03251C16.9592 3.80727 16.8495 3.60009 16.6879 3.43726C16.5262 3.27443 16.3198 3.16328 16.0949 3.11791C15.87 3.07253 15.6367 3.09498 15.4245 3.1824C15.2124 3.26982 15.031 3.41828 14.9033 3.60894C14.7757 3.79961 14.7075 4.02389 14.7075 4.25334C14.7075 4.55911 14.8284 4.85248 15.0438 5.06947C15.2593 5.28646 15.5518 5.40947 15.8575 5.41167Z" fill="#FF9A42"/>
<path d="M27.0325 13.5033C25.9913 13.7427 24.9776 14.0889 24.0075 14.5367C22.824 15.1045 21.7062 15.8004 20.6742 16.6117C19.943 15.7133 19.3115 14.7381 18.7909 13.7033C17.96 11.9284 17.2581 10.0959 16.6909 8.22C16.6374 8.04285 16.5264 7.88855 16.3755 7.78142C16.2247 7.67429 16.0424 7.62043 15.8575 7.62834C15.6726 7.62043 15.4904 7.67429 15.3395 7.78142C15.1886 7.88855 15.0777 8.04285 15.0242 8.22C14.4583 10.0964 13.7564 11.929 12.9242 13.7033C12.406 14.7369 11.7743 15.7096 11.0409 16.6033C10.004 15.8014 8.88692 15.1088 7.70752 14.5367C6.76103 14.0949 5.7728 13.7487 4.75752 13.5033C4.60679 13.4671 4.44894 13.4737 4.30173 13.5223C4.15451 13.5708 4.02377 13.6595 3.92419 13.7783C3.82286 13.9011 3.7588 14.0503 3.7396 14.2083C3.72041 14.3663 3.74687 14.5265 3.81586 14.67C5.39669 18.2645 6.51668 22.0445 7.14919 25.92C7.18292 26.1157 7.2854 26.2929 7.43818 26.4197C7.59096 26.5465 7.784 26.6146 7.98252 26.6117H23.8159C24.0144 26.6146 24.2074 26.5465 24.3602 26.4197C24.513 26.2929 24.6155 26.1157 24.6492 25.92C25.2817 22.0445 26.4017 18.2645 27.9825 14.67C28.0515 14.5265 28.078 14.3663 28.0588 14.2083C28.0396 14.0503 27.9755 13.9011 27.8742 13.7783C27.7739 13.658 27.6418 13.5684 27.4929 13.5198C27.344 13.4712 27.1845 13.4655 27.0325 13.5033ZM9.90752 23.8783C9.72423 23.88 9.54458 23.8271 9.39137 23.7265C9.23816 23.6259 9.11831 23.482 9.04701 23.3131C8.97572 23.1443 8.95621 22.958 8.99096 22.778C9.0257 22.5981 9.11314 22.4325 9.24216 22.3023C9.37119 22.1721 9.53599 22.0831 9.71564 22.0468C9.8953 22.0104 10.0817 22.0282 10.2512 22.098C10.4207 22.1677 10.5657 22.2863 10.6677 22.4386C10.7697 22.5909 10.8242 22.77 10.8242 22.9533C10.8242 23.1972 10.7279 23.4312 10.5562 23.6045C10.3845 23.7777 10.1514 23.8761 9.90752 23.8783ZM15.8659 23.8783C15.6367 23.8565 15.424 23.7501 15.2692 23.5798C15.1143 23.4095 15.0286 23.1876 15.0286 22.9575C15.0286 22.7274 15.1143 22.5055 15.2692 22.3352C15.424 22.1649 15.6367 22.0585 15.8659 22.0367C16.095 22.0585 16.3077 22.1649 16.4625 22.3352C16.6174 22.5055 16.7032 22.7274 16.7032 22.9575C16.7032 23.1876 16.6174 23.4095 16.4625 23.5798C16.3077 23.7501 16.095 23.8565 15.8659 23.8783ZM21.8325 23.8783C21.6492 23.88 21.4696 23.8271 21.3164 23.7265C21.1632 23.6259 21.0433 23.482 20.972 23.3131C20.9007 23.1443 20.8812 22.958 20.916 22.778C20.9507 22.5981 21.0381 22.4325 21.1672 22.3023C21.2962 22.1721 21.461 22.0831 21.6406 22.0468C21.8203 22.0104 22.0067 22.0282 22.1762 22.098C22.3457 22.1677 22.4907 22.2863 22.5927 22.4386C22.6947 22.5909 22.7492 22.77 22.7492 22.9533C22.7492 23.1972 22.6529 23.4312 22.4812 23.6045C22.3095 23.7777 22.0764 23.8761 21.8325 23.8783Z" fill="#FF9A42"/>
</g>
<defs>
<clipPath id="clip0_115_1761">
<rect width="30" height="30" fill="white" transform="translate(0.674194 0.0866699)"/>
</clipPath>
</defs>
</svg>
