<svg viewBox="0 0 88 86" fill="none" xmlns="http://www.w3.org/2000/svg">
<g filter="url(#filter0_d_70_696)">
<ellipse cx="43.9539" cy="37.7824" rx="38.5" ry="37.5" fill="url(#paint0_linear_70_696)"/>
</g>
<path d="M45.7886 32.3198C47.248 32.3198 48.6476 32.8719 49.6795 33.8546C50.7114 34.8373 51.2912 36.1701 51.2912 37.5599C51.2912 38.0231 51.4844 38.4674 51.8284 38.795C52.1723 39.1225 52.6389 39.3066 53.1253 39.3066C53.6118 39.3066 54.0783 39.1225 54.4223 38.795C54.7663 38.4674 54.9595 38.0231 54.9595 37.5599C54.9595 35.2436 53.9933 33.0222 52.2734 31.3844C50.5535 29.7465 48.2209 28.8264 45.7886 28.8264C45.3022 28.8264 44.8357 29.0104 44.4917 29.338C44.1477 29.6656 43.9545 30.1098 43.9545 30.5731C43.9545 31.0363 44.1477 31.4806 44.4917 31.8082C44.8357 32.1358 45.3022 32.3198 45.7886 32.3198Z" fill="white"/>
<path d="M45.7879 25.3331C49.1931 25.3331 52.4588 26.6212 54.8666 28.9142C57.2745 31.2072 58.6272 34.3172 58.6272 37.5599C58.6272 38.0232 58.8204 38.4674 59.1644 38.795C59.5083 39.1226 59.9749 39.3066 60.4613 39.3066C60.9478 39.3066 61.4143 39.1226 61.7583 38.795C62.1023 38.4674 62.2955 38.0232 62.2955 37.5599C62.2955 33.3906 60.5563 29.3921 57.4605 26.444C54.3648 23.4959 50.166 21.8397 45.7879 21.8397C45.3015 21.8397 44.835 22.0237 44.491 22.3513C44.147 22.6788 43.9538 23.1231 43.9538 23.5864C43.9538 24.0496 44.147 24.4939 44.491 24.8215C44.835 25.149 45.3015 25.3331 45.7879 25.3331ZM61.837 46.1362C61.7361 45.8558 61.5619 45.6044 61.3309 45.4058C61.0998 45.2072 60.8195 45.0678 60.5163 45.0008L49.5113 42.6079C49.2126 42.5434 48.9017 42.5511 48.6069 42.6305C48.3122 42.7098 48.043 42.8582 47.8239 43.062C47.5671 43.2891 47.5488 43.3065 46.3565 45.4724C42.4006 43.7365 39.2308 40.7055 37.4241 36.9311C39.7535 35.8132 39.7719 35.8132 40.0103 35.5512C40.2244 35.3426 40.3802 35.0862 40.4635 34.8055C40.5468 34.5248 40.5549 34.2287 40.4872 33.9443L37.9744 23.5864C37.904 23.2976 37.7577 23.0307 37.5491 22.8107C37.3405 22.5907 37.0766 22.4248 36.7822 22.3287C36.3538 22.183 35.9115 22.0777 35.4616 22.0143C34.998 21.912 34.5249 21.8535 34.0492 21.8397C31.8116 21.8397 29.6655 22.6862 28.0833 24.193C26.501 25.6998 25.6121 27.7435 25.6121 29.8745C25.6218 37.0057 28.6008 43.8422 33.8959 48.8848C39.191 53.9273 46.3699 56.7643 53.8583 56.7736C54.9663 56.7736 56.0634 56.5657 57.0871 56.162C58.1107 55.7582 59.0408 55.1663 59.8243 54.4202C60.6078 53.6741 61.2292 52.7884 61.6532 51.8136C62.0773 50.8387 62.2955 49.7939 62.2955 48.7388C62.2961 48.2942 62.2593 47.8503 62.1854 47.4113C62.1084 46.9774 61.9918 46.5508 61.837 46.1362Z" fill="white"/>
<defs>
<filter id="filter0_d_70_696" x="0.453857" y="0.282379" width="87" height="85" filterUnits="userSpaceOnUse" color-interpolation-filters="sRGB">
<feFlood flood-opacity="0" result="BackgroundImageFix"/>
<feColorMatrix in="SourceAlpha" type="matrix" values="0 0 0 0 0 0 0 0 0 0 0 0 0 0 0 0 0 0 127 0" result="hardAlpha"/>
<feOffset dy="5"/>
<feGaussianBlur stdDeviation="2.5"/>
<feColorMatrix type="matrix" values="0 0 0 0 0.576471 0 0 0 0 0.576471 0 0 0 0 0.576471 0 0 0 0.25 0"/>
<feBlend mode="normal" in2="BackgroundImageFix" result="effect1_dropShadow_70_696"/>
<feBlend mode="normal" in="SourceGraphic" in2="effect1_dropShadow_70_696" result="shape"/>
</filter>
<linearGradient id="paint0_linear_70_696" x1="43.9539" y1="0.282379" x2="43.9539" y2="75.2824" gradientUnits="userSpaceOnUse">
<stop stop-color="#00E7F7"/>
<stop offset="0.0001" stop-color="#FB5160"/>
<stop offset="1" stop-color="#ED2E4C"/>
</linearGradient>
</defs>
</svg>
