<svg width="65" height="64" viewBox="0 0 65 64" fill="none" xmlns="http://www.w3.org/2000/svg">
<g filter="url(#filter0_d_70_701)">
<ellipse cx="32.4539" cy="26.7824" rx="27" ry="26.5" fill="white"/>
</g>
<path d="M32.8419 22.3823C33.761 22.3823 34.6424 22.73 35.2922 23.3489C35.9421 23.9678 36.3072 24.8071 36.3072 25.6823C36.3072 25.9741 36.4289 26.2539 36.6455 26.4602C36.8621 26.6665 37.1559 26.7823 37.4623 26.7823C37.7686 26.7823 38.0624 26.6665 38.279 26.4602C38.4957 26.2539 38.6174 25.9741 38.6174 25.6823C38.6174 24.2237 38.0089 22.8247 36.9258 21.7933C35.8427 20.7618 34.3737 20.1823 32.8419 20.1823C32.5356 20.1823 32.2418 20.2982 32.0251 20.5045C31.8085 20.7108 31.6868 20.9906 31.6868 21.2823C31.6868 21.5741 31.8085 21.8539 32.0251 22.0602C32.2418 22.2665 32.5356 22.3823 32.8419 22.3823Z" fill="url(#paint0_linear_70_701)"/>
<path d="M32.8415 17.9824C34.9859 17.9824 37.0425 18.7936 38.5589 20.2377C40.0752 21.6817 40.9271 23.6402 40.9271 25.6824C40.9271 25.9741 41.0488 26.2539 41.2654 26.4602C41.482 26.6665 41.7758 26.7824 42.0822 26.7824C42.3885 26.7824 42.6823 26.6665 42.899 26.4602C43.1156 26.2539 43.2373 25.9741 43.2373 25.6824C43.2373 23.0567 42.142 20.5386 40.1924 18.682C38.2428 16.8254 35.5986 15.7824 32.8415 15.7824C32.5351 15.7824 32.2413 15.8983 32.0247 16.1046C31.8081 16.3109 31.6864 16.5906 31.6864 16.8824C31.6864 17.1741 31.8081 17.4539 32.0247 17.6602C32.2413 17.8665 32.5351 17.9824 32.8415 17.9824ZM42.9485 31.0834C42.885 30.9068 42.7753 30.7485 42.6298 30.6234C42.4843 30.4983 42.3078 30.4106 42.1168 30.3684L35.1863 28.8614C34.9982 28.8208 34.8024 28.8257 34.6168 28.8756C34.4311 28.9256 34.2616 29.019 34.1236 29.1474C33.9619 29.2904 33.9504 29.3014 33.1996 30.6654C30.7083 29.5722 28.712 27.6633 27.5743 25.2864C29.0412 24.5824 29.0528 24.5824 29.2029 24.4174C29.3378 24.286 29.4359 24.1245 29.4883 23.9478C29.5408 23.771 29.5459 23.5845 29.5033 23.4054L27.9208 16.8824C27.8765 16.7005 27.7843 16.5324 27.653 16.3939C27.5216 16.2553 27.3554 16.1509 27.17 16.0904C26.9002 15.9986 26.6217 15.9323 26.3383 15.8924C26.0464 15.8279 25.7485 15.7911 25.4489 15.7824C24.0397 15.7824 22.6882 16.3155 21.6918 17.2644C20.6953 18.2134 20.1355 19.5004 20.1355 20.8424C20.1416 25.3334 22.0177 29.6387 25.3523 32.8143C28.687 35.9899 33.208 37.7766 37.9239 37.7824C38.6216 37.7824 39.3126 37.6515 39.9572 37.3972C40.6019 37.1429 41.1876 36.7702 41.681 36.3003C42.1744 35.8305 42.5658 35.2727 42.8328 34.6588C43.0998 34.0448 43.2373 33.3869 43.2373 32.7224C43.2376 32.4424 43.2145 32.1628 43.168 31.8864C43.1194 31.6132 43.046 31.3445 42.9485 31.0834Z" fill="url(#paint1_linear_70_701)"/>
<defs>
<filter id="filter0_d_70_701" x="0.453857" y="0.282379" width="64" height="63" filterUnits="userSpaceOnUse" color-interpolation-filters="sRGB">
<feFlood flood-opacity="0" result="BackgroundImageFix"/>
<feColorMatrix in="SourceAlpha" type="matrix" values="0 0 0 0 0 0 0 0 0 0 0 0 0 0 0 0 0 0 127 0" result="hardAlpha"/>
<feOffset dy="5"/>
<feGaussianBlur stdDeviation="2.5"/>
<feColorMatrix type="matrix" values="0 0 0 0 0.576471 0 0 0 0 0.576471 0 0 0 0 0.576471 0 0 0 0.25 0"/>
<feBlend mode="normal" in2="BackgroundImageFix" result="effect1_dropShadow_70_701"/>
<feBlend mode="normal" in="SourceGraphic" in2="effect1_dropShadow_70_701" result="shape"/>
</filter>
<linearGradient id="paint0_linear_70_701" x1="35.1521" y1="20.1823" x2="35.1521" y2="26.7823" gradientUnits="userSpaceOnUse">
<stop stop-color="#0D1177"/>
<stop offset="1" stop-color="#753FC1"/>
</linearGradient>
<linearGradient id="paint1_linear_70_701" x1="31.6864" y1="15.7824" x2="31.6864" y2="37.7824" gradientUnits="userSpaceOnUse">
<stop stop-color="#0D1177"/>
<stop offset="1" stop-color="#753FC1"/>
</linearGradient>
</defs>
</svg>
