<svg width="101" height="32" viewBox="0 0 101 32" fill="none" xmlns="http://www.w3.org/2000/svg">
<rect x="0.628906" y="0.603821" width="100" height="31" rx="15.5" fill="white" fill-opacity="0.16"/>
<path d="M37.9873 21.7551C39.6362 21.7551 40.8608 20.8366 41.1187 19.4186V19.4079H40.1411L40.1304 19.4186C39.8887 20.3102 39.0669 20.8635 37.9873 20.8635C36.4941 20.8635 35.5596 19.6442 35.5596 17.7053V17.6945C35.5596 15.7556 36.4941 14.5309 37.9819 14.5309C39.0508 14.5309 39.8779 15.1594 40.1357 16.153L40.1411 16.1638H41.1133L41.1187 16.153C40.8877 14.6652 39.6147 13.6393 37.9819 13.6393C35.8765 13.6393 34.5659 15.197 34.5659 17.6945V17.7053C34.5659 20.1974 35.8818 21.7551 37.9873 21.7551ZM44.1024 21.6745C44.8812 21.6745 45.4881 21.3361 45.8534 20.7184H45.9393V21.5724H46.8739V17.6086C46.8739 16.4055 46.0843 15.6804 44.6717 15.6804C43.4364 15.6804 42.5555 16.2927 42.4051 17.2004L42.3998 17.2326H43.3343L43.3397 17.2165C43.4901 16.7653 43.9466 16.5075 44.6395 16.5075C45.5043 16.5075 45.9393 16.8942 45.9393 17.6086V18.1349L44.2796 18.237C42.9315 18.3176 42.1688 18.9138 42.1688 19.945V19.9557C42.1688 21.0085 43.0013 21.6745 44.1024 21.6745ZM43.1249 19.9343V19.9235C43.1249 19.3488 43.5116 19.0373 44.3924 18.9836L45.9393 18.8869V19.4133C45.9393 20.2404 45.2464 20.8635 44.2958 20.8635C43.6244 20.8635 43.1249 20.5197 43.1249 19.9343ZM48.4719 21.5724H49.4065V17.9846C49.4065 17.1682 49.9812 16.5075 50.7385 16.5075C51.469 16.5075 51.9416 16.9533 51.9416 17.6408V21.5724H52.8762V17.8503C52.8762 17.1144 53.4079 16.5075 54.2136 16.5075C55.03 16.5075 55.4221 16.9318 55.4221 17.7858V21.5724H56.3567V17.571C56.3567 16.3571 55.696 15.6804 54.5144 15.6804C53.7141 15.6804 53.0534 16.0832 52.7419 16.6955H52.656C52.3874 16.0939 51.8396 15.6804 51.0554 15.6804C50.2981 15.6804 49.7502 16.0402 49.4924 16.6633H49.4065V15.7824H48.4719V21.5724ZM60.2965 21.6745C61.6607 21.6745 62.4879 20.9011 62.6866 20.1169L62.6973 20.0739H61.7628L61.7413 20.1223C61.5855 20.4714 61.1021 20.842 60.3179 20.842C59.2867 20.842 58.6261 20.1437 58.5992 18.946H62.7672V18.5807C62.7672 16.8513 61.8111 15.6804 60.2374 15.6804C58.6637 15.6804 57.6431 16.905 57.6431 18.6935V18.6989C57.6431 20.5143 58.6422 21.6745 60.2965 21.6745ZM60.232 16.5129C61.086 16.5129 61.7198 17.0554 61.8165 18.1994H58.6153C58.7174 17.0983 59.3726 16.5129 60.232 16.5129ZM64.1074 21.5724H65.0419V17.9846C65.0419 17.1359 65.6757 16.572 66.5673 16.572C66.7714 16.572 66.9487 16.5934 67.142 16.6257V15.718C67.0507 15.7018 66.852 15.6804 66.6747 15.6804C65.8906 15.6804 65.3481 16.0349 65.1279 16.6418H65.0419V15.7824H64.1074V21.5724ZM69.7767 21.6745C70.5555 21.6745 71.1624 21.3361 71.5276 20.7184H71.6136V21.5724H72.5481V17.6086C72.5481 16.4055 71.7586 15.6804 70.346 15.6804C69.1106 15.6804 68.2298 16.2927 68.0794 17.2004L68.074 17.2326H69.0086L69.014 17.2165C69.1644 16.7653 69.6209 16.5075 70.3138 16.5075C71.1785 16.5075 71.6136 16.8942 71.6136 17.6086V18.1349L69.9539 18.237C68.6058 18.3176 67.8431 18.9138 67.8431 19.945V19.9557C67.8431 21.0085 68.6756 21.6745 69.7767 21.6745ZM68.7991 19.9343V19.9235C68.7991 19.3488 69.1858 19.0373 70.0667 18.9836L71.6136 18.8869V19.4133C71.6136 20.2404 70.9207 20.8635 69.97 20.8635C69.2986 20.8635 68.7991 20.5197 68.7991 19.9343ZM80.5029 21.7551C82.7158 21.7551 84.0586 20.1706 84.0586 17.6999V17.6891C84.0586 15.2077 82.7051 13.6393 80.5029 13.6393C78.3115 13.6393 76.9473 15.2023 76.9473 17.6891V17.6999C76.9473 20.176 78.2793 21.7551 80.5029 21.7551ZM80.5029 20.8635C78.8916 20.8635 77.9356 19.6174 77.9356 17.6999V17.6891C77.9356 15.7556 78.9238 14.5309 80.5029 14.5309C82.0874 14.5309 83.0703 15.7556 83.0703 17.6891V17.6999C83.0703 19.6174 82.0928 20.8635 80.5029 20.8635ZM85.8929 21.5724H86.8275V16.5558H88.1434V15.7824H86.8275V15.1647C86.8275 14.5309 87.0961 14.2033 87.7621 14.2033C87.9286 14.2033 88.0844 14.2087 88.1971 14.2302V13.4836C88.0038 13.446 87.7997 13.4299 87.5741 13.4299C86.473 13.4299 85.8929 13.9831 85.8929 15.1379V15.7824H84.9315V16.5558H85.8929V21.5724ZM89.7683 21.5724H90.7029V16.5558H92.0188V15.7824H90.7029V15.1647C90.7029 14.5309 90.9714 14.2033 91.6374 14.2033C91.8039 14.2033 91.9597 14.2087 92.0725 14.2302V13.4836C91.8791 13.446 91.675 13.4299 91.4495 13.4299C90.3484 13.4299 89.7683 13.9831 89.7683 15.1379V15.7824H88.8069V16.5558H89.7683V21.5724Z" fill="white"/>
<!-- <path d="M24.9268 24.6476C25.0908 24.8049 25.3506 24.8049 25.5078 24.6476C25.665 24.4836 25.665 24.2307 25.5078 24.0666L12.1709 10.7365C12.0137 10.5793 11.7539 10.5724 11.5898 10.7365C11.4326 10.8937 11.4326 11.1603 11.5898 11.3176L24.9268 24.6476ZM22.1172 12.1447H14.625L24.1133 21.633C24.2227 21.3596 24.2773 20.9973 24.2773 20.6144V14.3254C24.2773 12.9308 23.5186 12.1447 22.1172 12.1447ZM25.0771 19.6848L27.5449 21.7629C27.7842 21.968 28.0371 22.091 28.29 22.091C28.7686 22.091 29.083 21.7424 29.083 21.2092V14.134C29.083 13.6008 28.7686 13.2521 28.29 13.2521C28.0371 13.2521 27.7842 13.3752 27.5449 13.5803L25.0771 15.6516V19.6848ZM14.6182 23.1984H22.4521L12.6152 13.3683C12.4854 13.6008 12.417 13.9631 12.417 14.3459V21.0041C12.417 22.3986 13.2168 23.1984 14.6182 23.1984Z" fill="white"/> -->
</svg>
