<svg width="50" height="67" viewBox="0 0 50 67" fill="none" xmlns="http://www.w3.org/2000/svg">
<rect y="0.606018" width="50" height="50" rx="25" fill="#EB5545"/>
<path d="M15.7568 33.8961C15.376 34.2769 15.3613 34.9214 15.7568 35.3023C16.1377 35.6978 16.7822 35.6832 17.1631 35.3023L25 27.4654L32.8369 35.3023C33.2178 35.6832 33.8623 35.6978 34.2432 35.3023C34.6387 34.9214 34.624 34.2769 34.2432 33.8961L26.4062 26.0591L34.2432 18.2076C34.624 17.8267 34.6387 17.1968 34.2432 16.816C33.8623 16.4205 33.2178 16.4351 32.8369 16.816L25 24.6529L17.1631 16.816C16.7822 16.4351 16.1377 16.4205 15.7568 16.816C15.3613 17.1968 15.376 17.8267 15.7568 18.2076L23.5938 26.0591L15.7568 33.8961Z" fill="white"/>
<!-- <path d="M20.0827 65.1075C19.841 65.6177 19.3361 65.8917 18.5895 65.8917C17.6066 65.8917 16.9674 65.1666 16.9191 64.0225V63.9796H21.0817V63.6251C21.0817 61.8257 20.131 60.7139 18.568 60.7139C16.9782 60.7139 15.9577 61.8956 15.9577 63.7164C15.9577 65.5479 16.9621 66.7081 18.568 66.7081C19.8356 66.7081 20.7379 66.0958 21.0065 65.1075H20.0827ZM18.5573 61.5303C19.4757 61.5303 20.088 62.2071 20.1095 63.233H16.9191C16.9889 62.2071 17.6334 61.5303 18.5573 61.5303ZM22.4219 66.606H23.3457V63.1793C23.3457 62.1641 23.9419 61.5464 24.8657 61.5464C25.7896 61.5464 26.23 62.0406 26.23 63.0826V66.606H27.1538V62.857C27.1538 61.482 26.4287 60.7139 25.1289 60.7139C24.2427 60.7139 23.6787 61.0899 23.3887 61.7291H23.3027V60.816H22.4219V66.606ZM30.8788 66.7081C31.6791 66.7081 32.3666 66.3267 32.7318 65.6822H32.8177V66.606H33.6986V58.5172H32.7748V61.7291H32.6942C32.3666 61.0953 31.6844 60.7139 30.8788 60.7139C29.4071 60.7139 28.4457 61.8956 28.4457 63.711C28.4457 65.5318 29.3963 66.7081 30.8788 66.7081ZM31.0936 61.5464C32.141 61.5464 32.7962 62.3843 32.7962 63.711C32.7962 65.0484 32.1463 65.8755 31.0936 65.8755C30.0355 65.8755 29.4017 65.0645 29.4017 63.711C29.4017 62.3629 30.0409 61.5464 31.0936 61.5464Z" fill="white"/> -->
</svg>
