<svg width="12" height="9" viewBox="0 0 12 9" fill="none" xmlns="http://www.w3.org/2000/svg">
<path d="M11.094 4.19318C10.6897 3.14738 9.98778 2.24296 9.07506 1.59171C8.16234 0.940468 7.0788 0.570943 5.95835 0.528809C4.8379 0.570943 3.75436 0.940468 2.84164 1.59171C1.92892 2.24296 1.22703 3.14738 0.822725 4.19318C0.79542 4.26871 0.79542 4.35141 0.822725 4.42693C1.22703 5.47274 1.92892 6.37716 2.84164 7.0284C3.75436 7.67965 4.8379 8.04917 5.95835 8.09131C7.0788 8.04917 8.16234 7.67965 9.07506 7.0284C9.98778 6.37716 10.6897 5.47274 11.094 4.42693C11.1213 4.35141 11.1213 4.26871 11.094 4.19318V4.19318ZM5.95835 6.54443C5.51643 6.54443 5.08444 6.41339 4.717 6.16787C4.34956 5.92236 4.06317 5.5734 3.89406 5.16512C3.72494 4.75684 3.68069 4.30758 3.76691 3.87415C3.85312 3.44073 4.06593 3.0426 4.37841 2.73012C4.69089 2.41763 5.08902 2.20483 5.52245 2.11862C5.95587 2.0324 6.40513 2.07665 6.81341 2.24577C7.22169 2.41488 7.57065 2.70127 7.81617 3.06871C8.06168 3.43615 8.19273 3.86814 8.19273 4.31006C8.19182 4.90237 7.95612 5.47017 7.53729 5.889C7.11846 6.30783 6.55066 6.54352 5.95835 6.54443V6.54443Z" fill="white"/>
</svg>
