<svg width="11" height="11" viewBox="0 0 11 11" fill="none" xmlns="http://www.w3.org/2000/svg">
<path d="M6.72153 0.605957V1.99831H8.24109L6.2381 3.98796C5.67608 3.62425 5.00615 3.41318 4.28685 3.41318C2.30064 3.41318 0.690308 5.0232 0.690308 7.00941C0.690299 8.99562 2.30064 10.606 4.28685 10.606C6.27306 10.606 7.88309 8.99562 7.88309 7.00941C7.88309 6.25444 7.65056 5.55382 7.25308 4.97532L9.22242 3.00598V4.51221H10.6148C10.6148 3.29158 10.628 1.82341 10.6278 0.605957H6.72153ZM4.28685 4.86075C5.47362 4.86075 6.43551 5.82264 6.43551 7.00941C6.43551 8.19617 5.47362 9.15839 4.28685 9.15839C3.10008 9.15839 2.13787 8.19617 2.13787 7.00941C2.13787 5.82264 3.10008 4.86075 4.28685 4.86075Z" fill="white"/>
</svg>
