<svg viewBox="0 0 25 23" xmlns="http://www.w3.org/2000/svg">
<path fill-rule="evenodd" clip-rule="evenodd" d="M18.175 1.62122C17.8795 1.62122 17.5869 1.67942 17.3139 1.79249C17.041 1.90557 16.7929 2.0713 16.584 2.28023C16.3751 2.48916 16.2093 2.7372 16.0963 3.01018C15.9832 3.28317 15.925 3.57575 15.925 3.87122C15.925 4.1667 15.9832 4.45928 16.0963 4.73226C16.2093 5.00524 16.3751 5.25328 16.584 5.46221C16.7929 5.67114 17.041 5.83688 17.3139 5.94995C17.5869 6.06302 17.8795 6.12122 18.175 6.12122C18.7717 6.12122 19.344 5.88417 19.766 5.46221C20.1879 5.04026 20.425 4.46796 20.425 3.87122C20.425 3.27448 20.1879 2.70219 19.766 2.28023C19.344 1.85827 18.7717 1.62122 18.175 1.62122ZM12.8653 3.12122C13.8164 3.12122 14.5936 2.40428 15.1588 1.63924C15.3429 1.38994 15.5585 1.16277 15.8018 0.963938C16.4716 0.416511 17.31 0.117462 18.175 0.117462C19.04 0.117462 19.8784 0.416511 20.5482 0.963938C20.8573 1.21663 21.1218 1.51508 21.3339 1.84657C21.7675 2.52442 22.4283 3.12122 23.233 3.12122H24.175C24.5892 3.12122 24.925 3.45701 24.925 3.87122C24.925 4.28544 24.5892 4.62122 24.175 4.62122H23.233C22.4283 4.62122 21.7675 5.21802 21.3339 5.89587C21.1218 6.22736 20.8573 6.52581 20.5482 6.77851C19.8784 7.32593 19.04 7.62498 18.175 7.62498C17.31 7.62498 16.4716 7.32593 15.8018 6.77851C15.5585 6.57967 15.3429 6.35251 15.1588 6.1032C14.5936 5.33816 13.8164 4.62122 12.8653 4.62122H1.67499C1.26077 4.62122 0.924988 4.28544 0.924988 3.87122C0.924988 3.45701 1.26077 3.12122 1.67499 3.12122H12.8653ZM7.67499 9.12122C7.07825 9.12122 6.50595 9.35827 6.084 9.78023C5.66204 10.2022 5.42499 10.7745 5.42499 11.3712C5.42499 11.968 5.66204 12.5403 6.084 12.9622C6.50595 13.3842 7.07825 13.6212 7.67499 13.6212C8.27172 13.6212 8.84402 13.3842 9.26598 12.9622C9.68793 12.5403 9.92499 11.968 9.92499 11.3712C9.92499 10.7745 9.68793 10.2022 9.26598 9.78023C8.84402 9.35827 8.27172 9.12122 7.67499 9.12122ZM2.61701 10.6212C3.4217 10.6212 4.08246 10.0244 4.51611 9.34657C4.72818 9.01508 4.99263 8.71663 5.30179 8.46394C5.97155 7.91651 6.80997 7.61746 7.67499 7.61746C8.54 7.61746 9.37842 7.91651 10.0482 8.46394C10.2915 8.66277 10.507 8.88994 10.6912 9.13924C11.2564 9.90428 12.0335 10.6212 12.9847 10.6212H24.175C24.5892 10.6212 24.925 10.957 24.925 11.3712C24.925 11.7854 24.5892 12.1212 24.175 12.1212H12.9847C12.0335 12.1212 11.2564 12.8382 10.6912 13.6032C10.507 13.8525 10.2915 14.0797 10.0482 14.2785C9.37842 14.8259 8.54 15.125 7.67499 15.125C6.80997 15.125 5.97155 14.8259 5.30179 14.2785C4.99263 14.0258 4.72818 13.7274 4.51611 13.3959C4.08246 12.718 3.4217 12.1212 2.61701 12.1212H1.67499C1.26077 12.1212 0.924988 11.7854 0.924988 11.3712C0.924988 10.957 1.26077 10.6212 1.67499 10.6212H2.61701ZM18.175 16.6212C17.5783 16.6212 17.006 16.8583 16.584 17.2802C16.162 17.7022 15.925 18.2745 15.925 18.8712C15.925 19.468 16.162 20.0403 16.584 20.4622C17.006 20.8842 17.5783 21.1212 18.175 21.1212C18.7717 21.1212 19.344 20.8842 19.766 20.4622C20.1879 20.0403 20.425 19.468 20.425 18.8712C20.425 18.2745 20.1879 17.7022 19.766 17.2802C19.344 16.8583 18.7717 16.6212 18.175 16.6212ZM12.8653 18.1212C13.8164 18.1212 14.5936 17.4043 15.1588 16.6392C15.3429 16.3899 15.5585 16.1628 15.8018 15.9639C16.4716 15.4165 17.31 15.1175 18.175 15.1175C19.04 15.1175 19.8784 15.4165 20.5482 15.9639C20.8573 16.2166 21.1218 16.5151 21.3339 16.8466C21.7675 17.5244 22.4283 18.1212 23.233 18.1212H24.175C24.5892 18.1212 24.925 18.457 24.925 18.8712C24.925 19.2854 24.5892 19.6212 24.175 19.6212H23.233C22.4283 19.6212 21.7675 20.218 21.3339 20.8959C21.1218 21.2274 20.8573 21.5258 20.5482 21.7785C19.8784 22.3259 19.04 22.625 18.175 22.625C17.31 22.625 16.4716 22.3259 15.8018 21.7785C15.5585 21.5797 15.3429 21.3525 15.1588 21.1032C14.5936 20.3382 13.8164 19.6212 12.8653 19.6212H1.67499C1.26077 19.6212 0.924988 19.2854 0.924988 18.8712C0.924988 18.457 1.26077 18.1212 1.67499 18.1212H12.8653Z"/>
</svg>
