<svg width="50" height="69" viewBox="0 0 50 69" fill="none" xmlns="http://www.w3.org/2000/svg">
<rect y="0.606018" width="50" height="50" rx="25" fill="white" fill-opacity="0.16"/>
<path d="M14.3008 36.774H35.6875C37.9727 36.774 39.1445 35.6021 39.1445 33.3521V21.0474C39.1445 18.7857 37.9727 17.6138 35.6875 17.6138H32.2539C31.3164 17.6138 31.0469 17.4849 30.4844 16.8521L29.5117 15.7623C28.9023 15.106 28.3633 14.813 27.1914 14.813H22.6211C21.4492 14.813 20.9102 15.106 20.3125 15.7623L19.3281 16.8521C18.7773 17.4732 18.4961 17.6138 17.5586 17.6138H14.3008C12.0156 17.6138 10.8438 18.7857 10.8438 21.0474V33.3521C10.8438 35.6021 12.0156 36.774 14.3008 36.774ZM20.7227 22.8755C20.4062 22.5474 20.5 22.0787 20.9453 21.7154C21.9883 20.7779 23.5 20.2037 25 20.2037C28.2344 20.2037 30.8125 22.4068 31.3398 25.6295H32.5938C33.0391 25.6295 33.1211 26.0279 32.8867 26.3795L31.1406 28.9107C30.8477 29.3443 30.3789 29.3326 30.0859 28.9107L28.3281 26.3795C28.0703 26.0396 28.1875 25.6295 28.6328 25.6295H29.9688C29.4883 23.3326 27.4727 21.6334 25 21.6334C23.8047 21.6334 22.8203 22.0201 21.8242 22.8755C21.4492 23.1685 21.0508 23.2154 20.7227 22.8755ZM17.0781 26.7779L18.8125 24.2466C19.1172 23.813 19.5859 23.8248 19.8789 24.2466L21.6367 26.7779C21.8828 27.1177 21.7656 27.5279 21.332 27.5279H20.0312C20.5234 29.8248 22.5391 31.524 25.0117 31.524C26.207 31.524 27.1797 31.1255 28.1758 30.2818C28.5508 29.9888 28.9609 29.942 29.2773 30.2818C29.5938 30.6099 29.5 31.0904 29.0664 31.442C28.0117 32.3795 26.5 32.9537 25.0117 32.9537C21.7656 32.9537 19.1992 30.7505 18.6602 27.5279H17.3594C16.9141 27.5279 16.832 27.1295 17.0781 26.7779Z" fill="white"/>
<path d="M18.3222 66.606H19.2568V61.5894H20.5727V60.816H19.2568V60.1983C19.2568 59.5645 19.5254 59.2369 20.1914 59.2369C20.3579 59.2369 20.5136 59.2422 20.6264 59.2637V58.5172C20.4331 58.4796 20.229 58.4634 20.0034 58.4634C18.9023 58.4634 18.3222 59.0167 18.3222 60.1714V60.816H17.3608V61.5894H18.3222V66.606ZM21.8646 66.606H22.7991V58.5172H21.8646V66.606ZM24.9772 59.6988C25.3317 59.6988 25.6218 59.4088 25.6218 59.0543C25.6218 58.6998 25.3317 58.4097 24.9772 58.4097C24.6227 58.4097 24.3327 58.6998 24.3327 59.0543C24.3327 59.4088 24.6227 59.6988 24.9772 59.6988ZM24.5046 66.606H25.4391V60.816H24.5046V66.606ZM27.0909 68.5396H28.0254V65.6929H28.1114C28.4283 66.3106 29.1211 66.7081 29.9161 66.7081C31.3877 66.7081 32.3438 65.5318 32.3438 63.7164V63.7056C32.3438 61.9009 31.3824 60.7139 29.9161 60.7139C29.1104 60.7139 28.4659 61.0953 28.1114 61.7398H28.0254V60.816H27.0909V68.5396ZM29.7012 65.8809C28.6485 65.8809 28.0039 65.0538 28.0039 63.7164V63.7056C28.0039 62.3682 28.6485 61.5411 29.7012 61.5411C30.7593 61.5411 31.3877 62.3575 31.3877 63.7056V63.7164C31.3877 65.0645 30.7593 65.8809 29.7012 65.8809Z" fill="white"/>
</svg>
