<svg width="23" height="23" viewBox="0 0 23 23" fill="none" xmlns="http://www.w3.org/2000/svg">
<g clip-path="url(#clip0_115_1806)">
<path d="M19.6956 17.1978H2.58447V2.53111C2.58447 1.88281 2.84201 1.26105 3.30043 0.802631C3.75886 0.344209 4.38061 0.0866699 5.02892 0.0866699L17.2511 0.0866699C17.8994 0.0866699 18.5212 0.344209 18.9796 0.802631C19.438 1.26105 19.6956 1.88281 19.6956 2.53111V17.1978Z" fill="#DD2E44"/>
<path d="M5.02892 22.0867H17.2511C17.8994 22.0867 18.5212 21.8291 18.9796 21.3707C19.438 20.9123 19.6956 20.2905 19.6956 19.6422V17.1978C17.1796 15.5209 6.77731 12.1665 2.58447 17.1978V19.6422C2.58447 20.2905 2.84201 20.9123 3.30043 21.3707C3.75886 21.8291 4.38061 22.0867 5.02892 22.0867Z" fill="black"/>
<path d="M9.47536 12.3535C12.033 12.3535 14.1064 10.2801 14.1064 7.72251C14.1064 5.16488 12.033 3.09151 9.47536 3.09151C6.91773 3.09151 4.84436 5.16488 4.84436 7.72251C4.84436 10.2801 6.91773 12.3535 9.47536 12.3535Z" fill="white"/>
</g>
<defs>
<clipPath id="clip0_115_1806">
<rect width="22" height="22" fill="white" transform="translate(0.140015 0.0866699)"/>
</clipPath>
</defs>
</svg>
