<svg viewBox="0 0 22 22"  xmlns="http://www.w3.org/2000/svg">
<path fill-rule="evenodd" clip-rule="evenodd" d="M7.67853 3.27297C7.71672 3.08318 7.64193 2.88841 7.48653 2.77297L7.48553 2.77597C7.39306 2.69713 7.30129 2.61794 7.2096 2.53882L7.20956 2.53878L7.20951 2.53874L7.20947 2.53871L7.20943 2.53867L7.20939 2.53863L7.20934 2.53859L7.2093 2.53856L7.20926 2.53852L7.20921 2.53848L7.20917 2.53845L7.20913 2.53841L7.20909 2.53837L7.20904 2.53833L7.209 2.5383C7.14621 2.48411 7.08345 2.42996 7.02053 2.37597C6.87859 2.26854 6.8288 2.07781 6.90012 1.91471C6.97145 1.75161 7.14529 1.65868 7.32053 1.68997L7.42472 1.70193C7.57746 1.71926 7.73065 1.73664 7.88053 1.76597C8.10089 1.81908 8.33117 1.73078 8.45953 1.54397C8.53749 1.44423 8.62088 1.34844 8.70415 1.25279L8.70415 1.25279L8.70416 1.25278L8.70418 1.25276C8.73946 1.21223 8.77472 1.17173 8.80953 1.13097C8.91278 0.972406 9.11675 0.913643 9.28853 0.992966C9.464 1.06465 9.5581 1.25628 9.50753 1.43897C9.49768 1.50979 9.48898 1.58061 9.48029 1.65138V1.65139C9.46603 1.76748 9.45179 1.88341 9.43253 1.99897C9.38908 2.21267 9.47769 2.43163 9.65753 2.55497C9.79131 2.65921 9.91906 2.77251 10.0467 2.88569L10.1045 2.93697C10.2445 3.03984 10.2872 3.23018 10.2045 3.38297C10.1497 3.53758 9.99261 3.63127 9.83053 3.60597C9.70139 3.59111 9.57225 3.57495 9.44311 3.55878C9.34625 3.54666 9.24939 3.53454 9.15253 3.52297C8.97802 3.4928 8.80127 3.56265 8.69453 3.70397C8.59413 3.83022 8.48795 3.95128 8.3817 4.0724L8.38169 4.07241C8.34825 4.11054 8.3148 4.14866 8.28153 4.18697C8.17321 4.3288 7.98146 4.37732 7.81872 4.30406C7.65599 4.23081 7.56517 4.05509 7.59953 3.87997L7.61485 3.75082C7.63385 3.58923 7.65244 3.4311 7.67853 3.27297ZM15.9465 5.66197C16.009 5.68002 16.0712 5.69951 16.1335 5.71903C16.2437 5.75355 16.3541 5.78813 16.4665 5.81497C16.6645 5.85525 16.8188 6.0107 16.8575 6.20897C16.9115 6.40897 16.9685 6.60197 17.0335 6.79497C17.0744 6.97145 17.2356 7.0935 17.4165 7.08497C17.5901 7.08049 17.7371 6.95557 17.7695 6.78497L17.8356 6.56592L17.8358 6.56503L17.8363 6.56363C17.8752 6.43473 17.9145 6.30475 17.9525 6.17597C17.9961 5.99589 18.1372 5.85559 18.3175 5.81297C18.5295 5.75597 18.7395 5.69097 18.9485 5.62197C19.1126 5.57267 19.2237 5.42022 19.2205 5.24897C19.2129 5.07717 19.0933 4.93079 18.9265 4.88897C18.7315 4.82797 18.5355 4.77297 18.3385 4.71897C18.1409 4.67808 17.9864 4.52362 17.9455 4.32597C17.9015 4.14297 17.8455 3.96397 17.7875 3.78397C17.758 3.58825 17.5852 3.44657 17.3875 3.45597C17.1986 3.45697 17.0387 3.59597 17.0115 3.78297C16.9972 3.83145 16.9822 3.87967 16.9672 3.92791L16.9672 3.92795L16.9672 3.92799L16.9672 3.92803L16.9672 3.92807L16.9672 3.92811L16.9672 3.92816L16.9671 3.92822L16.9671 3.92827L16.9671 3.92832L16.9671 3.92838L16.9671 3.92843L16.967 3.92848L16.967 3.92855L16.967 3.92862L16.967 3.9287L16.967 3.92872L16.967 3.92874L16.967 3.92875L16.967 3.92876L16.967 3.92878L16.9669 3.92879L16.9669 3.92881L16.9669 3.92882L16.9669 3.92884L16.9669 3.92885L16.9669 3.92886L16.9669 3.92888L16.9669 3.92889L16.9669 3.92891L16.9669 3.92892C16.9306 4.04553 16.8943 4.16225 16.8675 4.28297C16.8269 4.51444 16.6452 4.69539 16.4135 4.73497C16.3207 4.75701 16.2293 4.7851 16.1378 4.81321L16.1378 4.81321L16.1378 4.81321L16.1378 4.81322L16.1377 4.81322L16.1377 4.81322L16.1377 4.81323L16.1377 4.81323L16.1377 4.81323L16.1377 4.81323L16.1377 4.81324L16.1377 4.81324L16.1377 4.81324L16.1377 4.81325L16.1377 4.81325L16.1377 4.81325C16.0715 4.83359 16.0053 4.85392 15.9385 4.87197C15.7385 4.92597 15.5935 5.02297 15.5915 5.25497C15.5895 5.48697 15.7415 5.60197 15.9455 5.66197H15.9465ZM10.0579 12.4602C9.95762 12.2973 9.93759 12.0975 10.0035 11.918V11.923C10.039 11.8484 10.0874 11.7807 10.1465 11.723C11.2238 10.6292 11.8322 10.0045 12.4407 9.37981L12.4408 9.37969L12.4411 9.3794C13.0497 8.75451 13.6585 8.1295 14.7365 7.03497C14.879 6.8484 15.1276 6.77832 15.3465 6.86297C15.6008 6.94659 15.7755 7.18044 15.7835 7.44797C15.7913 7.62682 15.71 7.79792 15.5665 7.90497C14.7447 8.73462 14.44 9.04996 14.1102 9.39131C13.811 9.70085 13.4913 10.0318 12.7465 10.787C12.1592 11.3803 11.5735 11.977 10.9895 12.577C10.8718 12.7113 10.6945 12.7774 10.5175 12.753C10.3275 12.731 10.1581 12.6231 10.0579 12.4602ZM21.2975 13.293C21.4709 13.2762 21.6343 13.3767 21.6975 13.539L21.6935 13.536C21.7548 13.704 21.6922 13.8921 21.5425 13.99C21.3665 14.122 21.1905 14.254 21.0105 14.38C20.8627 14.4774 20.7832 14.6504 20.8055 14.826C20.8205 15.045 20.8305 15.264 20.8375 15.484C20.8405 15.6482 20.7385 15.796 20.5839 15.8515C20.4293 15.9069 20.2566 15.8576 20.1545 15.729C20.0305 15.567 19.9085 15.403 19.7945 15.234C19.688 15.0533 19.4847 14.9529 19.2765 14.978C19.1805 14.9865 19.0843 14.9905 18.988 14.9945C18.9038 14.9979 18.8195 15.0014 18.7355 15.008C18.5436 15.0546 18.3473 14.9495 18.2795 14.764C18.2072 14.5707 18.2939 14.3541 18.4795 14.264C18.5262 14.2306 18.5723 14.1966 18.6184 14.1626L18.6185 14.1626C18.7107 14.0946 18.8029 14.0266 18.8995 13.964C19.0873 13.8526 19.1874 13.6373 19.1515 13.422C19.1407 13.3126 19.1356 13.2028 19.1304 13.0932V13.0932V13.0931V13.0931V13.093V13.093V13.093V13.0929V13.0929V13.0929V13.0928V13.0928V13.0927V13.0927V13.0927V13.0927V13.0926C19.1275 13.03 19.1245 12.9674 19.1205 12.905C19.0796 12.7119 19.1834 12.5174 19.3665 12.444C19.5522 12.3743 19.7605 12.4558 19.8495 12.633C19.8932 12.6951 19.9388 12.7555 19.9844 12.8159L19.9844 12.8159L19.9845 12.8159L19.9845 12.816L19.9845 12.816L19.9846 12.8161L19.9846 12.8161C20.0476 12.8995 20.1106 12.9829 20.1685 13.071C20.2795 13.2589 20.494 13.36 20.7095 13.326C20.8773 13.3114 21.0421 13.3042 21.2116 13.2968L21.2116 13.2968L21.2117 13.2968L21.2975 13.293ZM17.0295 9.25597C16.3895 9.51397 15.7535 9.78297 15.1195 10.056C14.9228 10.1296 14.7999 10.3259 14.8195 10.535C14.8223 10.6849 14.9001 10.8235 15.0266 10.9039C15.1531 10.9844 15.3116 10.996 15.4485 10.935C16.1055 10.677 16.7555 10.402 17.4035 10.122C17.5237 10.0775 17.6199 9.98481 17.6689 9.86635C17.7179 9.74789 17.7152 9.61437 17.6615 9.49797C17.6126 9.3797 17.5171 9.28677 17.3976 9.241C17.2781 9.19522 17.145 9.20064 17.0295 9.25597ZM12.6455 7.66697C12.5726 7.83165 12.4016 7.9303 12.2225 7.91097C12.0691 7.91819 11.9227 7.84595 11.8352 7.71976C11.7476 7.59356 11.7311 7.43118 11.7915 7.28997C12.0505 6.61697 12.3355 5.95097 12.6285 5.28997C12.6783 5.18075 12.7703 5.09647 12.8835 5.05649C12.9966 5.01651 13.1212 5.02426 13.2285 5.07797C13.3404 5.12222 13.43 5.20934 13.4773 5.31995C13.5246 5.43056 13.5258 5.55549 13.4805 5.66697C13.2125 6.33597 12.9305 7.00197 12.6455 7.66697ZM6.65023 8.90471L6.65023 8.90472L6.68953 9.01196C6.73821 9.18055 6.87569 9.30868 7.04728 9.34539C7.21886 9.38209 7.39673 9.32142 7.51012 9.18751C7.62351 9.05359 7.65402 8.86815 7.58953 8.70497C7.44653 8.27397 7.28953 7.84597 7.13153 7.41997C7.06602 7.21226 6.86436 7.07851 6.64753 7.09897C6.49542 7.09735 6.35287 7.17303 6.26901 7.29995C6.18514 7.42686 6.1714 7.58767 6.23253 7.72697H6.23353C6.3636 8.12268 6.5071 8.5142 6.65019 8.90459L6.65019 8.9046L6.6502 8.90461L6.6502 8.90463L6.6502 8.90464L6.65021 8.90465L6.65021 8.90466L6.65022 8.90467L6.65022 8.90468L6.65023 8.90469L6.65023 8.90471ZM14.8005 15.3115C14.9437 15.3618 15.0864 15.4118 15.2265 15.469L15.2255 15.473C15.4311 15.5424 15.5623 15.7438 15.5425 15.96C15.5417 16.1066 15.4688 16.2434 15.3474 16.3257C15.2261 16.408 15.0721 16.4253 14.9355 16.372C14.4885 16.225 14.0465 16.065 13.6065 15.899C13.4458 15.8472 13.3248 15.7135 13.2893 15.5484C13.2538 15.3833 13.3091 15.2117 13.4343 15.0984C13.5596 14.9851 13.7358 14.9472 13.8965 14.999C14.0904 15.0533 14.2802 15.1231 14.4699 15.1928L14.4699 15.1928L14.4699 15.1928L14.4699 15.1928L14.4699 15.1928L14.47 15.1928L14.47 15.1928L14.47 15.1928L14.47 15.1928L14.47 15.1928L14.47 15.1928C14.5454 15.2205 14.6209 15.2482 14.6965 15.275L14.8005 15.3115ZM18.7995 8.54197C18.6684 8.53264 18.5396 8.57995 18.4457 8.67192C18.3519 8.7639 18.3019 8.8917 18.3085 9.02297C18.3039 9.15012 18.3536 9.27324 18.4452 9.36157C18.5368 9.44991 18.6616 9.49514 18.7885 9.48597C18.9197 9.48519 19.0451 9.43184 19.1366 9.33786C19.2282 9.24389 19.2782 9.11713 19.2755 8.98597C19.273 8.86339 19.221 8.74706 19.1313 8.66344C19.0416 8.57981 18.922 8.536 18.7995 8.54197ZM6.46353 5.90897C6.45754 6.1733 6.24093 6.38412 5.97653 6.38297C5.71282 6.36434 5.50706 6.14729 5.50253 5.88297C5.5127 5.6193 5.72867 5.41038 5.99253 5.40897C6.25729 5.42435 6.46398 5.64376 6.46353 5.90897ZM16.8485 16.127C16.5857 16.1313 16.3712 16.3385 16.3575 16.601C16.3703 16.863 16.576 17.0746 16.8375 17.095C17.1018 17.0946 17.3184 16.8851 17.3275 16.621C17.3148 16.3581 17.1062 16.147 16.8435 16.131L16.8485 16.127ZM14.2025 3.91497C14.2025 4.19111 13.9787 4.41497 13.7025 4.41497L13.6975 4.41897C13.5747 4.42032 13.4565 4.37205 13.3697 4.28508C13.2829 4.19812 13.2349 4.07981 13.2365 3.95697C13.2403 3.68626 13.4588 3.46773 13.7295 3.46397C13.8523 3.4602 13.9714 3.5058 14.0603 3.59055C14.1492 3.67531 14.2004 3.79216 14.2025 3.91497ZM9.44453 4.68797C9.14628 4.80946 9.00268 5.14946 9.12353 5.44797C9.98053 7.55797 9.53953 8.79697 8.36253 10.474C8.18991 10.7378 8.25786 11.091 8.51605 11.272C8.77424 11.4529 9.12944 11.3962 9.31853 11.144C10.6395 9.26097 11.2485 7.57797 10.2045 5.00797C10.1455 4.86421 10.0315 4.74999 9.88784 4.69065C9.7442 4.63132 9.58282 4.63179 9.43953 4.69197L9.44453 4.68797ZM11.6285 13.441C13.5115 12.12 15.1945 11.511 17.7645 12.555C17.9674 12.6266 18.1145 12.8039 18.1473 13.0165C18.1802 13.2291 18.0935 13.4425 17.9217 13.572C17.7499 13.7015 17.5209 13.7261 17.3255 13.636C15.2145 12.779 13.9765 13.219 12.2985 14.396C12.0351 14.562 11.6878 14.4923 11.509 14.2374C11.3301 13.9825 11.3827 13.6321 11.6285 13.441ZM6.40053 10.333C6.21766 10.1502 5.95595 10.0702 5.70216 10.1195C5.44836 10.1689 5.23565 10.341 5.13453 10.579L0.79553 20.805C0.67175 21.0969 0.737472 21.4347 0.961658 21.6588C1.18584 21.883 1.52364 21.9487 1.81553 21.825L12.0415 17.487C12.2795 17.3858 12.4516 17.1731 12.501 16.9193C12.5503 16.6655 12.4703 16.4038 12.2875 16.221L6.40053 10.333ZM7.05453 17.913L7.36253 13.496V13.494L6.12153 12.253C6.13037 12.2997 6.13339 12.3474 6.13053 12.395L5.68153 18.495L7.05453 17.913ZM4.73053 15.514L4.47353 19.008L2.97953 19.642L4.73053 15.514ZM8.45953 14.59L8.25953 17.402L8.26353 17.406L10.3755 16.506L8.45953 14.59Z" />
</svg>
