<svg width="9" height="9" viewBox="0 0 9 9" fill="none" xmlns="http://www.w3.org/2000/svg">
<path d="M4.27441 0.937381L3.4751 1.64262H4.62141V0.806491C4.4977 0.806086 4.37385 0.849716 4.27441 0.937381Z" fill="#FDF0BC"/>
<path d="M4.96404 0.936568C4.86566 0.850253 4.74369 0.806893 4.62158 0.806488V1.64262H5.76787L4.96404 0.936568Z" fill="url(#paint0_linear_251_1537)"/>
<path d="M1.83287 2.09365L1.66797 3.15456L2.54606 2.40798L2.01563 1.76744C1.92058 1.84768 1.8534 1.96182 1.83287 2.09365Z" fill="#FDF0BC"/>
<path d="M2.36073 1.64398C2.23063 1.64182 2.10958 1.68815 2.01587 1.76744L2.5463 2.40798L3.42439 1.6614L2.36073 1.64398Z" fill="url(#paint1_linear_251_1537)"/>
<path d="M0.696399 4.56964L1.24296 5.48979L1.44198 4.34595L0.629479 4.20061C0.607483 4.32407 0.628412 4.45523 0.696399 4.56964Z" fill="#FDF0BC"/>
<path d="M0.815224 3.88141C0.714311 3.96462 0.65099 4.07889 0.629395 4.2006L1.44203 4.34581L1.64106 3.20197L0.815224 3.88141Z" fill="url(#paint2_linear_251_1537)"/>
<path d="M1.39612 7.20662L2.39858 7.55539L1.8255 6.54947L1.11084 6.96754C1.17229 7.07641 1.27147 7.16326 1.39612 7.20662Z" fill="url(#paint3_linear_251_1537)"/>
<path d="M1.05084 6.60202C1.02618 6.73143 1.05017 6.86029 1.11083 6.96768L1.82548 6.54961L1.2524 5.54369L1.05084 6.60202Z" fill="url(#paint4_linear_251_1537)"/>
<path d="M3.60506 8.77084L4.59419 8.38519L3.51707 7.98792L3.23486 8.77368C3.35097 8.8169 3.48215 8.81879 3.60506 8.77084Z" fill="url(#paint5_linear_251_1537)"/>
<path d="M2.9569 8.53256C3.02009 8.64778 3.1202 8.73085 3.23484 8.77354L3.51705 7.98779L2.43994 7.59052L2.9569 8.53256Z" fill="url(#paint6_linear_251_1537)"/>
<path d="M6.2896 8.5304L6.80269 7.59066L5.72559 7.98793L6.00779 8.77367C6.12404 8.73112 6.22575 8.64724 6.2896 8.5304Z" fill="url(#paint7_linear_251_1537)"/>
<path d="M5.64197 8.77001C5.76355 8.81715 5.89285 8.81553 6.00776 8.77352L5.72555 7.98778L4.64844 8.38504L5.64197 8.77001Z" fill="url(#paint8_linear_251_1537)"/>
<path d="M8.19336 6.5977L7.99033 5.54369L7.41724 6.54961L8.1319 6.96768C8.19402 6.85921 8.21869 6.72873 8.19336 6.5977Z" fill="url(#paint9_linear_251_1537)"/>
<path d="M7.84925 7.20311C7.97216 7.16002 8.07027 7.07452 8.13172 6.96754L7.41707 6.54947L6.84399 7.55539L7.84925 7.20311Z" fill="url(#paint10_linear_251_1537)"/>
<path d="M8.4258 3.87709L7.60156 3.20197L7.80059 4.34581L8.61323 4.2006C8.5923 4.07714 8.52831 3.9611 8.4258 3.87709Z" fill="url(#paint11_linear_251_1537)"/>
<path d="M8.54624 4.56504C8.61315 4.45199 8.63408 4.32258 8.61315 4.20061L7.80054 4.34581L7.99956 5.48965L8.54624 4.56504Z" fill="url(#paint12_linear_251_1537)"/>
<path d="M6.87802 1.64169L5.81836 1.66128L6.69645 2.40785L7.22688 1.76731C7.13236 1.68654 7.00986 1.63926 6.87802 1.64169Z" fill="url(#paint13_linear_251_1537)"/>
<path d="M7.40678 2.09028C7.38625 1.96006 7.32027 1.84741 7.22695 1.76758L6.69653 2.40812L7.57461 3.15469L7.40678 2.09028Z" fill="url(#paint14_linear_251_1537)"/>
<path d="M4.62146 7.75059C6.16754 7.75059 7.4209 6.48058 7.4209 4.91395C7.4209 3.34732 6.16754 2.07732 4.62146 2.07732C3.07537 2.07732 1.82202 3.34732 1.82202 4.91395C1.82202 6.48058 3.07537 7.75059 4.62146 7.75059Z" fill="url(#paint15_radial_251_1537)"/>
<path d="M4.6213 1.82391C2.9371 1.82391 1.57178 3.20725 1.57178 4.91382C1.57178 6.6204 2.9371 8.00387 4.6213 8.00387C6.30549 8.00387 7.67082 6.6204 7.67082 4.91382C7.67082 3.20725 6.30549 1.82391 4.6213 1.82391ZM4.6213 7.75019C3.07534 7.75019 1.82213 6.48032 1.82213 4.91382C1.82213 3.34732 3.07534 2.07745 4.6213 2.07745C6.16726 2.07745 7.42047 3.34732 7.42047 4.91382C7.42047 6.48032 6.16726 7.75019 4.6213 7.75019Z" fill="url(#paint16_linear_251_1537)"/>
<path d="M4.62137 1.42961C2.72229 1.42961 1.18286 2.98949 1.18286 4.91382C1.18286 6.83814 2.72229 8.39802 4.62137 8.39802C6.52046 8.39802 8.05988 6.83814 8.05988 4.91382C8.05988 2.98949 6.52046 1.42961 4.62137 1.42961ZM4.62137 8.00238C2.93798 8.00238 1.57332 6.61958 1.57332 4.91382C1.57332 3.20805 2.93798 1.82539 4.62137 1.82539C6.30477 1.82539 7.66943 3.20818 7.66943 4.91395C7.66943 6.61972 6.30477 8.00238 4.62137 8.00238Z" fill="url(#paint17_linear_251_1537)"/>
<path d="M3.8496 6.33537C3.80294 6.33537 3.75962 6.32025 3.72136 6.29323C3.71642 6.28985 3.71309 6.28648 3.70976 6.2831C3.70643 6.28148 3.70469 6.2781 3.70309 6.27635C3.69643 6.27121 3.6931 6.26621 3.68816 6.26122C3.68483 6.25784 3.6831 6.25446 3.6799 6.25109L3.6783 6.24946C3.67497 6.24609 3.67323 6.24271 3.67163 6.23933L3.6683 6.2342C3.66164 6.22407 3.6567 6.21394 3.65164 6.20381C3.65004 6.19881 3.6483 6.19368 3.64657 6.18868C3.64497 6.18355 3.64324 6.17693 3.64164 6.1718C3.63991 6.16504 3.63831 6.15667 3.63657 6.14816C3.63657 6.14478 3.63497 6.13978 3.63497 6.1364C3.63497 6.12965 3.63337 6.1229 3.63337 6.11614C3.63337 6.10439 3.63497 6.0925 3.63671 6.079L3.76495 5.3231L3.22372 4.78819C3.21372 4.77806 3.20373 4.76631 3.19546 4.75442C3.18546 4.73929 3.1788 4.7274 3.17387 4.7139C3.17227 4.7089 3.16893 4.70215 3.1672 4.69364C3.16214 4.67337 3.15894 4.65311 3.15894 4.63123C3.15894 4.62448 3.15894 4.61948 3.15894 4.61272C3.15894 4.60259 3.16054 4.59246 3.16387 4.58233C3.16387 4.58071 3.16547 4.57733 3.16547 4.57558C3.1672 4.57044 3.1672 4.56545 3.1688 4.56045C3.1688 4.55883 3.1704 4.55532 3.17213 4.55032C3.17373 4.54518 3.17547 4.54019 3.1788 4.53519C3.18373 4.52506 3.1888 4.51493 3.19706 4.50318C3.20039 4.49642 3.20533 4.49142 3.21039 4.48629C3.21039 4.48629 3.21039 4.48467 3.21199 4.48467L3.23865 4.44077H3.26198C3.26531 4.43901 3.26691 4.43739 3.27025 4.43564C3.27358 4.43402 3.28024 4.43064 3.28518 4.42726C3.29184 4.42388 3.30011 4.42051 3.31011 4.41713C3.31344 4.41551 3.31837 4.41375 3.32344 4.41375C3.3301 4.41213 3.33677 4.41038 3.34503 4.40862L4.09435 4.29894L4.42402 3.61558C4.46068 3.53966 4.53559 3.49239 4.61878 3.49239C4.67876 3.49239 4.73702 3.51765 4.77861 3.56155C4.78528 3.56992 4.79194 3.57667 4.79687 3.58518C4.80354 3.59532 4.81021 3.60545 4.81514 3.61558L5.14987 4.30056L5.89745 4.41024C5.98077 4.42199 6.04902 4.48116 6.07395 4.56207C6.07569 4.5672 6.07729 4.57044 6.07729 4.57558C6.07729 4.5772 6.07729 4.5772 6.07888 4.57895C6.08048 4.58409 6.08222 4.58908 6.08222 4.59584C6.08222 4.59746 6.08222 4.59746 6.08222 4.59922C6.08382 4.60597 6.08382 4.61097 6.08382 4.61772C6.08555 4.64973 6.08048 4.6835 6.06715 4.7139C6.06209 4.7274 6.05556 4.73916 6.04716 4.75104L6.04542 4.75266C6.03716 4.76442 6.02716 4.7763 6.01716 4.78643L5.47594 5.32134L5.60418 6.07548C5.61751 6.15815 5.58592 6.24082 5.51753 6.29147C5.50087 6.30323 5.48087 6.31511 5.46087 6.32187C5.45914 6.32187 5.45754 6.32362 5.45421 6.32362C5.43261 6.33038 5.41089 6.33375 5.38929 6.33375C5.35436 6.33375 5.3193 6.32538 5.28771 6.30849L4.61838 5.95243L3.94904 6.30849C3.91945 6.327 3.88452 6.33537 3.8496 6.33537Z" fill="#DF771E"/>
<path d="M4.61882 3.60031V4.99567L4.15918 4.40011L4.51884 3.66285C4.54057 3.62233 4.58056 3.60031 4.61882 3.60031Z" fill="#FFFAF6"/>
<path d="M5.97249 4.59758L4.62036 4.99579L5.07987 4.40024L5.88251 4.51829C5.92757 4.52667 5.95916 4.55868 5.97249 4.59758Z" fill="#FEE0AC"/>
<path d="M5.45473 6.20542L4.6189 4.99567L5.36155 5.28419L5.49805 6.09412C5.50792 6.1414 5.48792 6.18179 5.45473 6.20542Z" fill="#ECB76B"/>
<path d="M4.61869 4.99567V5.83085L3.90096 6.21379C3.85937 6.23568 3.81604 6.22892 3.78271 6.20542L4.61869 4.99567Z" fill="#F1A341"/>
<path d="M5.07853 4.40011L4.6189 4.99567V3.60031C4.64889 3.60031 4.67888 3.61206 4.70048 3.6357C4.70381 3.63908 4.70714 3.64408 4.71048 3.64921C4.71381 3.65434 4.71714 3.65934 4.71874 3.66434L5.07853 4.40011Z" fill="#FFE9BA"/>
<path d="M5.96926 4.67351C5.96593 4.68026 5.9626 4.68701 5.95926 4.69377C5.9542 4.70052 5.94927 4.70552 5.94433 4.71227L5.36325 5.28595L4.62061 4.99742L5.97273 4.59921C5.97273 4.60083 5.97433 4.60259 5.97433 4.60435C5.97433 4.6061 5.97606 4.60772 5.97606 4.6111C5.97606 4.61286 5.97606 4.61286 5.97606 4.61286C5.97606 4.61448 5.97606 4.61623 5.97606 4.61785C5.97606 4.62123 5.97606 4.62299 5.97606 4.62623C5.97766 4.64136 5.97593 4.65824 5.96926 4.67351Z" fill="#E49632"/>
<path d="M5.45486 6.20542C5.4466 6.21217 5.4366 6.21717 5.42487 6.22055C5.42327 6.22055 5.42327 6.22055 5.42154 6.22217C5.39487 6.23054 5.36488 6.22892 5.33662 6.21379L4.6189 5.83085V4.99567L5.45486 6.20542Z" fill="#E29136"/>
<path d="M4.61878 4.99567L3.78294 6.20542C3.78134 6.20367 3.7796 6.20205 3.77801 6.20029C3.77641 6.19867 3.77467 6.19691 3.77294 6.19516C3.77134 6.19354 3.76961 6.19178 3.76627 6.1884C3.76454 6.18678 3.76294 6.18503 3.76121 6.18327C3.75948 6.18152 3.75961 6.18165 3.75961 6.17989C3.75801 6.17827 3.75628 6.17652 3.75628 6.17476C3.75294 6.16976 3.74961 6.16463 3.74801 6.15963C3.74641 6.15801 3.74641 6.1545 3.74468 6.15126C3.74308 6.14788 3.74308 6.14613 3.74135 6.14288C3.73975 6.13951 3.73975 6.13451 3.73975 6.13113C3.73975 6.12951 3.73975 6.126 3.73975 6.12438C3.73975 6.121 3.73975 6.11762 3.73975 6.11425C3.73975 6.10749 3.73975 6.10074 3.74135 6.09399L3.87785 5.28406L4.61878 4.99567Z" fill="#FED891"/>
<path d="M4.61873 4.99567L3.2666 4.59746C3.2666 4.59584 3.2682 4.59408 3.2682 4.59233C3.2698 4.58895 3.2698 4.58557 3.27153 4.58395C3.27487 4.5772 3.2782 4.5722 3.28153 4.56707C3.28313 4.56369 3.28486 4.56194 3.2882 4.55869C3.28993 4.55707 3.29153 4.55356 3.29486 4.55194C3.29646 4.55032 3.29993 4.54694 3.30153 4.54519C3.30313 4.54343 3.30646 4.54181 3.30819 4.54005C3.31153 4.53843 3.31486 4.53492 3.31819 4.5333C3.31979 4.53168 3.32312 4.52992 3.32646 4.52992C3.33152 4.5283 3.33472 4.52655 3.33979 4.52479C3.34139 4.52479 3.34312 4.52317 3.34645 4.52317C3.34979 4.52155 3.35472 4.52155 3.35978 4.51979L4.16242 4.40173L4.61873 4.99567Z" fill="#FFF3D9"/>
<path d="M4.61876 4.99567L3.87784 5.28582L3.29675 4.71214C3.29009 4.70701 3.28676 4.70039 3.28182 4.69364C3.27849 4.68688 3.27356 4.68013 3.27183 4.67338C3.27023 4.67 3.26849 4.66662 3.26849 4.66324C3.26516 4.65311 3.26343 4.64136 3.26343 4.63123C3.26343 4.62785 3.26343 4.62448 3.26343 4.6211C3.26343 4.6161 3.26343 4.61273 3.26516 4.60759C3.26516 4.60597 3.26676 4.60422 3.26676 4.60084C3.26676 4.59922 3.26836 4.59746 3.26836 4.59584L4.61876 4.99567Z" fill="#ECB76B"/>
<defs>
<linearGradient id="paint0_linear_251_1537" x1="4.67763" y1="1.22455" x2="5.73025" y2="1.22455" gradientUnits="userSpaceOnUse">
<stop stop-color="#FEE998"/>
<stop offset="1" stop-color="#FCC15B"/>
</linearGradient>
<linearGradient id="paint1_linear_251_1537" x1="2.33638" y1="2.0404" x2="3.39836" y2="1.16091" gradientUnits="userSpaceOnUse">
<stop stop-color="#FEE998"/>
<stop offset="1" stop-color="#FCC15B"/>
</linearGradient>
<linearGradient id="paint2_linear_251_1537" x1="1.65986" y1="3.19957" x2="1.05555" y2="4.17935" gradientUnits="userSpaceOnUse">
<stop stop-color="#FCC15B"/>
<stop offset="1" stop-color="#FEE998"/>
</linearGradient>
<linearGradient id="paint3_linear_251_1537" x1="1.38112" y1="6.7351" x2="2.41967" y2="7.40902" gradientUnits="userSpaceOnUse">
<stop stop-color="#FFC05F"/>
<stop offset="1" stop-color="#ED892B"/>
</linearGradient>
<linearGradient id="paint4_linear_251_1537" x1="1.26415" y1="5.56558" x2="1.45243" y2="6.73761" gradientUnits="userSpaceOnUse">
<stop stop-color="#FCC15B"/>
<stop offset="1" stop-color="#FEE998"/>
</linearGradient>
<linearGradient id="paint5_linear_251_1537" x1="3.42756" y1="8.39479" x2="4.44507" y2="8.61794" gradientUnits="userSpaceOnUse">
<stop stop-color="#FEAC3E"/>
<stop offset="1" stop-color="#F08223"/>
</linearGradient>
<linearGradient id="paint6_linear_251_1537" x1="2.38911" y1="7.58156" x2="3.33053" y2="8.3417" gradientUnits="userSpaceOnUse">
<stop stop-color="#FFA135"/>
<stop offset="1" stop-color="#FEB431"/>
</linearGradient>
<linearGradient id="paint7_linear_251_1537" x1="6.80673" y1="7.58394" x2="5.86709" y2="8.38213" gradientUnits="userSpaceOnUse">
<stop stop-color="#FFAA3D"/>
<stop offset="1" stop-color="#ED8B1C"/>
</linearGradient>
<linearGradient id="paint8_linear_251_1537" x1="4.65252" y1="8.46026" x2="5.83826" y2="8.39525" gradientUnits="userSpaceOnUse">
<stop stop-color="#FF962D"/>
<stop offset="1" stop-color="#E56005"/>
</linearGradient>
<linearGradient id="paint9_linear_251_1537" x1="8.0339" y1="5.54791" x2="7.78941" y2="6.72262" gradientUnits="userSpaceOnUse">
<stop stop-color="#FDBD41"/>
<stop offset="1" stop-color="#FEB334"/>
</linearGradient>
<linearGradient id="paint10_linear_251_1537" x1="8.34621" y1="5.75493" x2="7.17706" y2="7.75332" gradientUnits="userSpaceOnUse">
<stop stop-color="#F6942F"/>
<stop offset="1" stop-color="#EA6F11"/>
</linearGradient>
<linearGradient id="paint11_linear_251_1537" x1="7.54402" y1="3.23579" x2="8.24666" y2="4.26332" gradientUnits="userSpaceOnUse">
<stop stop-color="#FDBD41"/>
<stop offset="1" stop-color="#FEB334"/>
</linearGradient>
<linearGradient id="paint12_linear_251_1537" x1="7.9566" y1="5.48672" x2="8.23321" y2="4.28055" gradientUnits="userSpaceOnUse">
<stop stop-color="#FD9D24"/>
<stop offset="1" stop-color="#FF9515"/>
</linearGradient>
<linearGradient id="paint13_linear_251_1537" x1="6.94837" y1="2.07184" x2="5.87664" y2="1.56166" gradientUnits="userSpaceOnUse">
<stop stop-color="#FCC15B"/>
<stop offset="1" stop-color="#FEE998"/>
</linearGradient>
<linearGradient id="paint14_linear_251_1537" x1="6.95358" y1="2.00564" x2="7.47297" y2="3.1447" gradientUnits="userSpaceOnUse">
<stop stop-color="#FF9515"/>
<stop offset="1" stop-color="#FFBE41"/>
</linearGradient>
<radialGradient id="paint15_radial_251_1537" cx="0" cy="0" r="1" gradientUnits="userSpaceOnUse" gradientTransform="translate(4.62148 4.91389) scale(2.79944 2.83664)">
<stop offset="0.8428" stop-color="#FAAA31"/>
<stop offset="1" stop-color="#F57E16"/>
</radialGradient>
<linearGradient id="paint16_linear_251_1537" x1="4.62132" y1="1.82386" x2="4.62132" y2="8.00394" gradientUnits="userSpaceOnUse">
<stop offset="0.0226" stop-color="#FD9A18"/>
<stop offset="0.3764" stop-color="#FEC752"/>
<stop offset="1" stop-color="#FFA422"/>
</linearGradient>
<linearGradient id="paint17_linear_251_1537" x1="4.62139" y1="1.4194" x2="4.62139" y2="8.38784" gradientUnits="userSpaceOnUse">
<stop stop-color="#FFDB69"/>
<stop offset="0.1799" stop-color="#FEE7B0"/>
<stop offset="0.24" stop-color="#FEE9BA"/>
<stop offset="0.2592" stop-color="#FDECD0"/>
<stop offset="0.2953" stop-color="#FEDA92"/>
<stop offset="0.3254" stop-color="#FFCD64"/>
<stop offset="0.3405" stop-color="#FFC853"/>
<stop offset="0.7613" stop-color="#FF9114"/>
<stop offset="1" stop-color="#F57E16"/>
</linearGradient>
</defs>
</svg>
