<svg width="24" height="24" viewBox="0 0 24 24" fill="none" xmlns="http://www.w3.org/2000/svg">
<path d="M21.728 2.22755C21.5197 2.01914 21.2724 1.8538 21.0003 1.741C20.7281 1.6282 20.4363 1.57014 20.1417 1.57014C19.8471 1.57014 19.5553 1.6282 19.2831 1.741C19.011 1.8538 18.7637 2.01914 18.5554 2.22755L12.3914 8.39155C11.8801 8.90318 11.5174 9.54414 11.342 10.2459L10.905 11.9882C10.8685 12.135 10.8706 12.2889 10.9112 12.4347C10.9517 12.5805 11.0293 12.7133 11.1364 12.8203C11.2435 12.9272 11.3764 13.0046 11.5223 13.045C11.6682 13.0853 11.822 13.0872 11.9688 13.0505L13.7082 12.6149C14.41 12.4396 15.0509 12.0769 15.5625 11.5655L21.7294 5.40011C21.9378 5.19185 22.1032 4.94457 22.216 4.67239C22.3288 4.4002 22.3868 4.10846 22.3868 3.81383C22.3868 3.5192 22.3288 3.22746 22.216 2.95527C22.1032 2.68309 21.9378 2.43581 21.7294 2.22755H21.728ZM15.7394 3.01099L11.3751 7.37524C10.6789 8.0711 10.185 8.94314 9.94624 9.89805L9.51211 11.6389C9.41546 12.0263 9.42071 12.4322 9.52736 12.8171C9.63401 13.2019 9.83844 13.5526 10.1207 13.8351C10.4031 14.1176 10.7537 14.3222 11.1385 14.429C11.5232 14.5359 11.9291 14.5413 12.3167 14.4449L14.0589 14.0093C15.0132 13.7707 15.8847 13.2773 16.5803 12.5819L20.8339 8.3283V15.2254C20.8339 15.7973 20.6067 16.3457 20.2023 16.7501C19.7979 17.1545 19.2495 17.3817 18.6776 17.3817H15.0839V18.8235H17.2401C17.4307 18.8235 17.6136 18.8992 17.7483 19.034C17.8831 19.1688 17.9589 19.3516 17.9589 19.5422C17.9589 19.7329 17.8831 19.9157 17.7483 20.0505C17.6136 20.1853 17.4307 20.261 17.2401 20.261H7.16899C6.97836 20.261 6.79555 20.1853 6.66075 20.0505C6.52596 19.9157 6.45024 19.7329 6.45024 19.5422C6.45024 19.3516 6.52596 19.1688 6.66075 19.034C6.79555 18.8992 6.97836 18.8235 7.16899 18.8235H9.33243V17.3817H5.74011C5.16824 17.3817 4.61979 17.1545 4.21541 16.7501C3.81104 16.3457 3.58386 15.7973 3.58386 15.2254V5.16724C3.58386 4.59536 3.81104 4.04691 4.21541 3.64254C4.61979 3.23816 5.16824 3.01099 5.74011 3.01099H15.7394ZM13.6449 18.8235V17.3817H10.7699V18.8235H13.6449ZM11.9674 13.0505L11.7949 12.3547L11.9674 13.0505Z" fill="#F32965"/>
</svg>
