<svg viewBox="0 0 22 19" xmlns="http://www.w3.org/2000/svg">
<path fill-rule="evenodd" clip-rule="evenodd" d="M4.88265 18.2724H17.5727C18.7058 18.2707 19.624 17.3525 19.6257 16.2194V7.70638L20.7457 7.63038C21.21 7.5998 21.5986 7.26703 21.7003 6.81298C21.8021 6.35893 21.5925 5.89213 21.1857 5.66638L12.2137 0.681384C11.6004 0.338179 10.8529 0.338179 10.2397 0.681384L1.26865 5.66538C0.861784 5.89113 0.652247 6.35793 0.753969 6.81198C0.85569 7.26603 1.24436 7.5988 1.70865 7.62938L2.82865 7.70538V16.2184C2.82976 17.3523 3.74872 18.2713 4.88265 18.2724ZM4.92865 6.72438C4.92946 6.51007 4.86455 6.30066 4.74265 6.12438L11.1957 2.51738L17.7077 6.13638C17.5896 6.31012 17.5265 6.51534 17.5267 6.72538L17.5727 16.1734L4.92865 16.2194V6.72438Z" />
</svg>
