<svg viewBox="0 0 20 19" xmlns="http://www.w3.org/2000/svg">
<path fill-rule="evenodd" clip-rule="evenodd" d="M4.38196 5.347C4.38196 8.30007 6.77589 10.694 9.72896 10.694C12.6807 10.6907 15.0727 8.2987 15.076 5.347C15.076 2.39393 12.682 0 9.72896 0C6.77589 0 4.38196 2.39393 4.38196 5.347ZM6.52096 5.348C6.52096 3.57627 7.95723 2.14 9.72896 2.14V2.144C11.4982 2.1462 12.9326 3.57875 12.937 5.348C12.937 7.11973 11.5007 8.556 9.72896 8.556C7.95723 8.556 6.52096 7.11973 6.52096 5.348Z" />
<path fill-rule="evenodd" d="M18.628 18.799C18.1215 18.8032 17.6817 18.4511 17.575 17.956C17.1716 15.9679 15.4247 14.5382 13.396 14.536H6.31902C4.2905 14.5386 2.54382 15.9681 2.14002 17.956C2.03367 18.4514 1.59364 18.8036 1.08702 18.799C0.766931 18.802 0.462178 18.6621 0.255681 18.4175C0.0491841 18.1729 -0.0375731 17.8491 0.0190163 17.534C0.626011 14.5356 3.25979 12.3788 6.31902 12.375H13.396C16.4552 12.3788 19.089 14.5356 19.696 17.534C19.753 17.8491 19.6664 18.1732 19.4598 18.4179C19.2532 18.6626 18.9482 18.8023 18.628 18.799Z" />
</svg>
