<svg viewBox="0 0 26 19" strokeWidth="1"
   xmlns="http://www.w3.org/2000/svg">
<path fill-rule="evenodd"  d="M23.747 9.55785C23.7404 7.0985 22.9023 4.71365 21.369 2.79085C21.292 2.69085 21.207 2.59985 21.128 2.50285C20.879 2.19185 20.8 1.86285 21.137 1.57785C21.494 1.27785 21.777 1.47785 22.027 1.77785C23.1221 3.05209 23.9297 4.54737 24.395 6.16185C25.5281 9.89505 24.7652 13.9464 22.352 17.0118C22.2194 17.1925 22.0697 17.36 21.905 17.5118C21.8143 17.6017 21.6912 17.6514 21.5636 17.6497C21.4359 17.648 21.3142 17.5951 21.226 17.5028C21.0071 17.3533 20.9407 17.0601 21.074 16.8308C21.2071 16.6208 21.3548 16.4203 21.516 16.2308C22.9747 14.3132 23.7591 11.9673 23.747 9.55785Z"/>
<path fill-rule="evenodd" d="M0.728975 9.55384C0.749813 6.75774 1.73373 4.05426 3.51498 1.89884C3.70098 1.67084 3.86498 1.39884 4.22898 1.42584C4.43202 1.43568 4.61242 1.55852 4.69598 1.74384C4.86698 2.05584 4.67898 2.26584 4.50098 2.47784C1.08858 6.46369 0.977498 12.3082 4.23598 16.4208C4.31198 16.5208 4.39498 16.6138 4.47398 16.7108C4.59942 16.8211 4.66739 16.9827 4.65842 17.1495C4.64945 17.3163 4.56452 17.4697 4.42798 17.5658C4.11998 17.8098 3.82798 17.7078 3.58398 17.4148C2.48804 16.1116 1.67852 14.5924 1.20798 12.9558C0.88016 11.8519 0.71872 10.7053 0.728975 9.55384Z" />
<path fill-rule="evenodd" d="M7.08297 4.35483C7.28378 4.38088 7.46167 4.49726 7.56597 4.67083C7.69639 4.89572 7.64947 5.18146 7.45397 5.35283C6.82 6.13146 6.37503 7.04638 6.15397 8.02583C5.69505 9.92454 6.07698 11.9289 7.20197 13.5258C7.24397 13.5878 7.28997 13.6478 7.33597 13.7068C7.58397 14.0298 7.62997 14.3768 7.28697 14.6308C6.92797 14.8978 6.63497 14.6948 6.40497 14.3728C4.76664 12.2152 4.35511 9.36586 5.31597 6.83283C5.58428 6.07777 5.97555 5.37226 6.47397 4.74483C6.60939 4.53125 6.83232 4.38849 7.08297 4.35483V4.35483Z"  />
<path fill-rule="evenodd" d="M20.768 9.65084C20.7787 11.31 20.2588 12.9292 19.284 14.2718C19.056 14.5948 18.784 14.9108 18.371 14.6448C17.912 14.3508 18.116 13.9818 18.355 13.6158C20.1189 11.1903 20.0742 7.89259 18.245 5.51584C18.007 5.16884 17.845 4.82984 18.245 4.53984C18.645 4.24984 18.931 4.51784 19.182 4.83984C20.2186 6.22897 20.7753 7.91758 20.768 9.65084Z"  />
<path fill-rule="evenodd" d="M16.56 7.10083L16.428 7.14283L15.728 7.20483L15.528 7.52083L15.384 7.47483L14.826 6.97483L14.745 6.71383L14.638 6.43183L14.287 6.11783L13.873 6.03683L13.863 6.22583L14.268 6.62583L14.468 6.85883L14.245 6.97483L14.064 6.92183L13.792 6.80883L13.801 6.58983L13.444 6.44283L13.326 6.95783L12.967 7.03883L13.003 7.32683L13.471 7.41683L13.552 6.95783L13.939 7.01483L14.119 7.11983H14.407L14.607 7.51983L15.13 8.05083L15.092 8.25683L14.67 8.20283L13.941 8.57083L13.416 9.20083L13.348 9.47983H13.16L12.809 9.31783L12.468 9.47983L12.553 9.83983L12.701 9.66883L12.962 9.66083L12.944 9.98383L13.16 10.0468L13.376 10.2888L13.728 10.1888L14.128 10.2528L14.596 10.3788L14.829 10.4058L15.229 10.8548L15.993 11.3038L15.499 12.2478L14.977 12.4898L14.777 13.0288L14.022 13.5288L13.942 13.8198C15.3395 13.4836 16.4841 12.4848 17.0064 11.1457C17.5288 9.80652 17.3628 8.29652 16.562 7.10283L16.56 7.10083Z" fill="#A3A8B4" />
<path fill-rule="evenodd" d="M13.413 11.8458L13.093 11.2518L13.387 10.6388L13.093 10.5508L12.763 10.2198L12.032 10.0558L11.789 9.54782V9.84782H11.682L11.052 8.99382V8.29382L10.59 7.54282L9.85596 7.67382H9.36196L9.11396 7.50982L9.43096 7.25882L9.11496 7.33182C8.31808 8.69049 8.30978 10.3719 9.09321 11.7383C9.87665 13.1048 11.3318 13.9471 12.907 13.9458C13.0916 13.9442 13.2759 13.9316 13.459 13.9078L13.413 13.3748C13.413 13.3748 13.613 12.5838 13.613 12.5568C13.613 12.5298 13.413 11.8458 13.413 11.8458Z" fill="#A3A8B4" />
<path fill-rule="evenodd" clip-rule="evenodd" d="M10.1449 6.56783L10.9259 6.45883L11.2859 6.25883L11.6909 6.37583L12.3379 6.33983L12.5609 5.99383L12.8839 6.04983L13.6689 5.97383L13.8859 5.73483L14.1909 5.53483L14.6209 5.59583L14.7799 5.57183C12.9641 4.71304 10.7969 5.19849 9.52094 6.74983L10.1449 6.56783ZM13.0939 5.58683L13.5429 5.33983L13.8309 5.50683L13.4139 5.82383L13.0139 5.86383L12.8359 5.74983L13.0939 5.58683ZM11.9639 5.70583L11.7639 5.62283C11.7569 5.67583 11.4759 5.85683 11.4759 5.85683L11.7619 6.02483L12.3619 5.86783L12.2209 5.62283L11.9639 5.70583Z" fill="#A3A8B4" />
</svg>
