<svg width="64" height="64" viewBox="0 0 64 64" fill="none" xmlns="http://www.w3.org/2000/svg">
<g filter="url(#filter0_d_70_705)">
<circle cx="31.9539" cy="26.7824" r="26.5" fill="white"/>
</g>
<path d="M20.5487 26.7798C20.5493 24.2792 21.3716 21.8481 22.8891 19.8606C24.4067 17.8732 26.5353 16.4395 28.9474 15.7802C31.3595 15.121 33.9214 15.2727 36.2389 16.212C38.5563 17.1514 40.5009 18.8262 41.7732 20.9789C43.0456 23.1316 43.5752 25.6428 43.2806 28.1259C42.9861 30.6091 41.8836 32.9267 40.143 34.7219C38.4023 36.5172 36.1199 37.6907 33.647 38.0618C31.1741 38.4328 28.6478 37.981 26.4569 36.7757L22.0223 38.1261C21.8245 38.1864 21.6141 38.1917 21.4135 38.1416C21.2129 38.0915 21.0297 37.9878 20.8835 37.8416C20.7373 37.6954 20.6335 37.5122 20.5834 37.3116C20.5333 37.111 20.5387 36.9005 20.5989 36.7027L21.9493 32.2613C21.0277 30.5815 20.5458 28.6958 20.5487 26.7798ZM27.3921 25.6392C27.3921 25.9417 27.5123 26.2318 27.7262 26.4457C27.9401 26.6596 28.2302 26.7798 28.5327 26.7798H35.3761C35.6786 26.7798 35.9687 26.6596 36.1826 26.4457C36.3965 26.2318 36.5167 25.9417 36.5167 25.6392C36.5167 25.3367 36.3965 25.0466 36.1826 24.8327C35.9687 24.6188 35.6786 24.4986 35.3761 24.4986H28.5327C28.2302 24.4986 27.9401 24.6188 27.7262 24.8327C27.5123 25.0466 27.3921 25.3367 27.3921 25.6392ZM28.5327 29.0609C28.2302 29.0609 27.9401 29.1811 27.7262 29.395C27.5123 29.6089 27.3921 29.899 27.3921 30.2015C27.3921 30.504 27.5123 30.7941 27.7262 31.008C27.9401 31.2219 28.2302 31.342 28.5327 31.342H33.095C33.3975 31.342 33.6876 31.2219 33.9015 31.008C34.1154 30.7941 34.2355 30.504 34.2355 30.2015C34.2355 29.899 34.1154 29.6089 33.9015 29.395C33.6876 29.1811 33.3975 29.0609 33.095 29.0609H28.5327Z" fill="url(#paint0_linear_70_705)"/>
<defs>
<filter id="filter0_d_70_705" x="0.453857" y="0.282379" width="63" height="63" filterUnits="userSpaceOnUse" color-interpolation-filters="sRGB">
<feFlood flood-opacity="0" result="BackgroundImageFix"/>
<feColorMatrix in="SourceAlpha" type="matrix" values="0 0 0 0 0 0 0 0 0 0 0 0 0 0 0 0 0 0 127 0" result="hardAlpha"/>
<feOffset dy="5"/>
<feGaussianBlur stdDeviation="2.5"/>
<feColorMatrix type="matrix" values="0 0 0 0 0.576471 0 0 0 0 0.576471 0 0 0 0 0.576471 0 0 0 0.25 0"/>
<feBlend mode="normal" in2="BackgroundImageFix" result="effect1_dropShadow_70_705"/>
<feBlend mode="normal" in="SourceGraphic" in2="effect1_dropShadow_70_705" result="shape"/>
</filter>
<linearGradient id="paint0_linear_70_705" x1="31.9544" y1="15.3767" x2="31.9544" y2="38.1881" gradientUnits="userSpaceOnUse">
<stop stop-color="#00E7F7"/>
<stop offset="0.0001" stop-color="#FEB800"/>
<stop offset="1" stop-color="#FF8700"/>
</linearGradient>
</defs>
</svg>
