<svg width="50" height="67" viewBox="0 0 50 67" fill="none" xmlns="http://www.w3.org/2000/svg">
<rect y="0.606018" width="50" height="50" rx="25" fill="white" fill-opacity="0.16"/>
<path d="M27.6836 24.4107V17.0279C27.6836 14.8482 26.2539 13.2076 24.1328 13.2076C22.0352 13.2076 20.582 14.813 20.582 16.9341V17.2974L27.6836 24.4107ZM34.0938 34.5826C34.375 34.8638 34.8203 34.8638 35.0898 34.5826C35.3711 34.3248 35.3594 33.8677 35.0898 33.5982L15.8945 14.4146C15.6367 14.1451 15.168 14.1451 14.8984 14.4146C14.6289 14.6841 14.6289 15.1412 14.8984 15.4107L34.0938 34.5826ZM18.7422 36.0709C18.3672 36.0709 18.0508 36.399 18.0508 36.7623C18.0508 37.1255 18.3672 37.442 18.7422 37.442H29.5234C29.8867 37.442 30.2031 37.1255 30.2031 36.7623C30.2031 36.399 29.8867 36.0709 29.5234 36.0709H24.8125V32.9888C26.5234 32.8716 27.9883 32.2974 29.1133 31.3834L28.1406 30.4107C27.1094 31.2427 25.7383 31.7232 24.1328 31.7232C20.2891 31.7232 17.6758 29.0396 17.6758 25.3834V22.8638C17.6758 22.442 17.4062 22.1724 17.0078 22.1724C16.6094 22.1724 16.3398 22.442 16.3398 22.8638V25.3834C16.3398 29.6021 19.1523 32.6959 23.4414 32.9888V36.0709H18.7422ZM31.9141 22.8638C31.9141 22.442 31.6445 22.1724 31.2461 22.1724C30.8477 22.1724 30.5781 22.442 30.5781 22.8638V25.3834C30.5781 25.981 30.4961 26.5552 30.3555 27.0826L31.457 28.1841C31.75 27.3287 31.9141 26.3912 31.9141 25.3834V22.8638ZM26.0781 28.3482L20.582 22.8404V25.2076C20.582 27.3873 22.0117 29.0162 24.1328 29.0162C24.9062 29.0162 25.5742 28.7701 26.0781 28.3482Z" fill="white"/>
<!-- <path d="M12.9404 66.606H13.8642V63.0181C13.8642 62.2017 14.4497 61.5464 15.207 61.5464C15.9375 61.5464 16.4155 61.9869 16.4155 62.6744V66.606H17.3393V62.8839C17.3393 62.148 17.8764 61.5464 18.6821 61.5464C19.4985 61.5464 19.9013 61.9654 19.9013 62.8194V66.606H20.8252V62.6046C20.8252 61.3907 20.1645 60.7139 18.9829 60.7139C18.1826 60.7139 17.5219 61.1168 17.2104 61.7291H17.1245C16.8559 61.1275 16.3081 60.7139 15.5239 60.7139C14.7504 60.7139 14.1704 61.0845 13.9072 61.7291H13.8212V60.816H12.9404V66.606ZM27.0853 60.816H26.1614V64.2427C26.1614 65.2579 25.6029 65.8648 24.5823 65.8648C23.6585 65.8648 23.2718 65.3814 23.2718 64.3394V60.816H22.348V64.565C22.348 65.9346 23.0247 66.7081 24.3245 66.7081C25.2108 66.7081 25.8284 66.3428 26.1185 65.6983H26.2044V66.606H27.0853V60.816ZM29.1022 59.3174V60.816H28.1677V61.5894H29.1022V65.1021C29.1022 66.2086 29.5803 66.649 30.7726 66.649C30.9553 66.649 31.1325 66.6275 31.3151 66.5953V65.8165C31.1432 65.8326 31.0519 65.838 30.8854 65.838C30.2839 65.838 30.0261 65.5479 30.0261 64.8658V61.5894H31.3151V60.816H30.0261V59.3174H29.1022ZM36.3506 65.1075C36.1089 65.6177 35.604 65.8917 34.8575 65.8917C33.8745 65.8917 33.2354 65.1666 33.187 64.0225V63.9796H37.3496V63.6251C37.3496 61.8257 36.399 60.7139 34.836 60.7139C33.2461 60.7139 32.2256 61.8956 32.2256 63.7164C32.2256 65.5479 33.23 66.7081 34.836 66.7081C36.1036 66.7081 37.0059 66.0958 37.2745 65.1075H36.3506ZM34.8252 61.5303C35.7437 61.5303 36.356 62.2071 36.3775 63.233H33.187C33.2569 62.2071 33.9014 61.5303 34.8252 61.5303Z" fill="white"/> -->
</svg>
