<svg width="19" height="20" viewBox="0 0 19 20" fill="none" xmlns="http://www.w3.org/2000/svg">
<path d="M12.1403 16.4259C12.1403 17.1303 11.8605 17.8059 11.3624 18.304C10.8643 18.8021 10.1887 19.0819 9.48432 19.0819C8.7799 19.0819 8.10433 18.8021 7.60624 18.304C7.10814 17.8059 6.82831 17.1303 6.82831 16.4259H12.1403ZM16.1243 15.0979H1.6491C1.43777 15.0979 1.2351 15.0139 1.08567 14.8645C0.936244 14.7151 0.852295 14.5124 0.852295 14.3011C0.852295 14.0898 0.936244 13.8871 1.08567 13.7377C1.2351 13.5882 1.43777 13.5043 1.6491 13.5043H2.8443V8.45788C2.8443 5.24411 5.12847 2.56154 8.16295 1.95066C8.14442 1.766 8.16479 1.57952 8.22276 1.40322C8.28073 1.22692 8.375 1.06473 8.4995 0.927111C8.624 0.789487 8.77596 0.679486 8.94559 0.604202C9.11522 0.528917 9.29874 0.490021 9.48432 0.490021C9.6699 0.490021 9.85342 0.528917 10.023 0.604202C10.1927 0.679486 10.3446 0.789487 10.4691 0.927111C10.5936 1.06473 10.6879 1.22692 10.7459 1.40322C10.8038 1.57952 10.8242 1.766 10.8057 1.95066C12.3065 2.25592 13.6557 3.0704 14.6249 4.25622C15.5941 5.44204 16.1238 6.92635 16.1243 8.45788V13.5043H17.3195C17.5309 13.5043 17.7335 13.5882 17.883 13.7377C18.0324 13.8871 18.1163 14.0898 18.1163 14.3011C18.1163 14.5124 18.0324 14.7151 17.883 14.8645C17.7335 15.0139 17.5309 15.0979 17.3195 15.0979H16.1243Z" fill="white"/>
</svg>
