<svg width="27" height="27" viewBox="0 0 27 27" fill="none" xmlns="http://www.w3.org/2000/svg">
<g clip-path="url(#clip0_115_1814)">
<path d="M22.6521 22.2645H5.31877C4.1271 22.2645 3.1521 21.2895 3.1521 20.0979V8.77702C3.1521 8.07285 3.4771 7.42285 4.07293 6.98952L13.9854 0.0561829L23.8979 6.98952C24.4938 7.36868 24.8188 8.07285 24.8188 8.77702V20.0979C24.8188 21.2895 23.8438 22.2645 22.6521 22.2645Z" fill="#78909C"/>
<path d="M8.56885 0.597851H19.4022V17.3895H8.56885V0.597851Z" fill="#AED581"/>
<path d="M8.0271 0.0561829V17.9312H19.9438V0.0561829H8.0271ZM18.8604 16.8479H9.11043V1.13952H18.8604V16.8479Z" fill="#558B2F"/>
<path d="M19.4021 1.68118C19.4021 2.60202 19.2396 3.30618 18.3187 3.30618C17.3979 3.30618 16.6937 2.60202 16.6937 1.68118C16.6937 0.760351 17.3979 0.597851 18.3187 0.597851C19.2396 0.597851 19.4021 0.760351 19.4021 1.68118Z" fill="#558B2F"/>
<path d="M9.65206 0.597851C10.5729 0.597851 11.2771 0.760351 11.2771 1.68118C11.2771 2.60202 10.5729 3.30618 9.65206 3.30618C8.73123 3.30618 8.56873 2.60202 8.56873 1.68118C8.56873 0.760351 8.73123 0.597851 9.65206 0.597851Z" fill="#558B2F"/>
<path d="M13.9854 5.47285C14.5837 5.47285 15.0688 4.98782 15.0688 4.38952C15.0688 3.79121 14.5837 3.30618 13.9854 3.30618C13.3871 3.30618 12.9021 3.79121 12.9021 4.38952C12.9021 4.98782 13.3871 5.47285 13.9854 5.47285Z" fill="#558B2F"/>
<path d="M13.9855 14.1395C15.7804 14.1395 17.2355 12.6844 17.2355 10.8895C17.2355 9.09459 15.7804 7.63951 13.9855 7.63951C12.1905 7.63951 10.7355 9.09459 10.7355 10.8895C10.7355 12.6844 12.1905 14.1395 13.9855 14.1395Z" fill="#558B2F"/>
<path d="M22.6521 22.2645H5.31877C4.1271 22.2645 3.1521 21.2895 3.1521 20.0978V9.26451L13.9854 16.3062L24.8188 9.26451V20.0978C24.8188 21.2895 23.8438 22.2645 22.6521 22.2645Z" fill="#CFD8DC"/>
</g>
<defs>
<clipPath id="clip0_115_1814">
<rect width="26" height="26" fill="white" transform="translate(0.985474 0.0561829)"/>
</clipPath>
</defs>
</svg>
