<svg width="24" height="19" viewBox="0 0 24 19" fill="none" xmlns="http://www.w3.org/2000/svg">
<g clip-path="url(#clip0_115_1759)">
<path d="M7.38547 9.08667C9.61 9.08667 11.4105 7.32534 11.4105 5.14917C11.4105 2.973 9.61 1.21167 7.38547 1.21167C5.16094 1.21167 3.36047 2.973 3.36047 5.14917C3.36047 7.32534 5.16094 9.08667 7.38547 9.08667ZM10.1455 10.2117H9.84719C9.09969 10.5632 8.26954 10.7742 7.38547 10.7742C6.50141 10.7742 5.67485 10.5632 4.92375 10.2117H4.62547C2.33985 10.2117 0.485474 12.0257 0.485474 14.2617V15.2742C0.485474 16.2058 1.25813 16.9617 2.21047 16.9617H12.5605C13.5128 16.9617 14.2855 16.2058 14.2855 15.2742V14.2617C14.2855 12.0257 12.4311 10.2117 10.1455 10.2117ZM17.7355 9.08667C19.6402 9.08667 21.1855 7.57495 21.1855 5.71167C21.1855 3.84839 19.6402 2.33667 17.7355 2.33667C15.8308 2.33667 14.2855 3.84839 14.2855 5.71167C14.2855 7.57495 15.8308 9.08667 17.7355 9.08667ZM19.4605 10.2117H19.3239C18.8244 10.3804 18.2961 10.4929 17.7355 10.4929C17.1748 10.4929 16.6466 10.3804 16.147 10.2117H16.0105C15.2773 10.2117 14.6017 10.4191 14.0088 10.7531C14.8856 11.6777 15.4355 12.9046 15.4355 14.2617V15.6117C15.4355 15.689 15.4175 15.7628 15.4139 15.8367H21.7605C22.7128 15.8367 23.4855 15.0808 23.4855 14.1492C23.4855 11.973 21.685 10.2117 19.4605 10.2117Z" fill="#247DCF"/>
</g>
<defs>
<clipPath id="clip0_115_1759">
<rect width="23" height="18" fill="white" transform="translate(0.485474 0.0866699)"/>
</clipPath>
</defs>
</svg>
