<svg width="98" height="96" viewBox="0 0 98 96" fill="none" xmlns="http://www.w3.org/2000/svg">
<g filter="url(#filter0_d_80_1015)">
<ellipse cx="49.0596" cy="43" rx="38.5" ry="37.5" fill="url(#paint0_linear_80_1015)"/>
</g>
<path d="M50.8947 37.5373C52.3541 37.5373 53.7537 38.0894 54.7856 39.0721C55.8175 40.0548 56.3972 41.3877 56.3972 42.7774C56.3972 43.2407 56.5905 43.685 56.9345 44.0125C57.2784 44.3401 57.745 44.5241 58.2314 44.5241C58.7179 44.5241 59.1844 44.3401 59.5284 44.0125C59.8723 43.685 60.0656 43.2407 60.0656 42.7774C60.0656 40.4612 59.0994 38.2398 57.3795 36.6019C55.6596 34.9641 53.327 34.0439 50.8947 34.0439C50.4083 34.0439 49.9417 34.228 49.5978 34.5555C49.2538 34.8831 49.0605 35.3274 49.0605 35.7906C49.0605 36.2539 49.2538 36.6982 49.5978 37.0257C49.9417 37.3533 50.4083 37.5373 50.8947 37.5373Z" fill="white"/>
<path d="M50.8937 30.551C54.2988 30.551 57.5645 31.8392 59.9723 34.1322C62.3802 36.4252 63.7329 39.5351 63.7329 42.7779C63.7329 43.2411 63.9261 43.6854 64.2701 44.013C64.6141 44.3405 65.0806 44.5246 65.567 44.5246C66.0535 44.5246 66.52 44.3405 66.864 44.013C67.208 43.6854 67.4012 43.2411 67.4012 42.7779C67.4012 38.6086 65.662 34.6101 62.5663 31.662C59.4705 28.7139 55.2717 27.0576 50.8937 27.0576C50.4072 27.0576 49.9407 27.2416 49.5967 27.5692C49.2527 27.8968 49.0595 28.3411 49.0595 28.8043C49.0595 29.2676 49.2527 29.7118 49.5967 30.0394C49.9407 30.367 50.4072 30.551 50.8937 30.551ZM66.9427 51.3541C66.8418 51.0737 66.6676 50.8224 66.4366 50.6238C66.2056 50.4252 65.9253 50.2858 65.6221 50.2188L54.617 47.8258C54.3183 47.7613 54.0074 47.7691 53.7126 47.8484C53.4179 47.9277 53.1487 48.0761 52.9296 48.28C52.6728 48.507 52.6545 48.5245 51.4623 50.6904C47.5063 48.9545 44.3365 45.9234 42.5298 42.1491C44.8592 41.0312 44.8776 41.0312 45.116 40.7692C45.3301 40.5605 45.4859 40.3042 45.5692 40.0235C45.6525 39.7428 45.6606 39.4467 45.5929 39.1622L43.0801 28.8043C43.0097 28.5156 42.8634 28.2486 42.6548 28.0286C42.4463 27.8086 42.1823 27.6428 41.8879 27.5467C41.4595 27.401 41.0172 27.2957 40.5673 27.2323C40.1037 27.1299 39.6306 27.0714 39.155 27.0576C36.9173 27.0576 34.7712 27.9041 33.189 29.411C31.6067 30.9178 30.7178 32.9615 30.7178 35.0924C30.7275 42.2237 33.7065 49.0602 39.0016 54.1027C44.2967 59.1453 51.4756 61.9823 58.964 61.9915C60.072 61.9915 61.1691 61.7837 62.1928 61.3799C63.2164 60.9761 64.1465 60.3843 64.93 59.6382C65.7135 58.8921 66.335 58.0063 66.759 57.0315C67.183 56.0567 67.4012 55.0119 67.4012 53.9567C67.4018 53.5121 67.365 53.0682 67.2912 52.6292C67.2141 52.1954 67.0975 51.7687 66.9427 51.3541Z" fill="white"/>
<defs>
<filter id="filter0_d_80_1015" x="0.55957" y="0.5" width="97" height="95" filterUnits="userSpaceOnUse" color-interpolation-filters="sRGB">
<feFlood flood-opacity="0" result="BackgroundImageFix"/>
<feColorMatrix in="SourceAlpha" type="matrix" values="0 0 0 0 0 0 0 0 0 0 0 0 0 0 0 0 0 0 127 0" result="hardAlpha"/>
<feOffset dy="5"/>
<feGaussianBlur stdDeviation="5"/>
<feColorMatrix type="matrix" values="0 0 0 0 0.576471 0 0 0 0 0.576471 0 0 0 0 0.576471 0 0 0 0.25 0"/>
<feBlend mode="normal" in2="BackgroundImageFix" result="effect1_dropShadow_80_1015"/>
<feBlend mode="normal" in="SourceGraphic" in2="effect1_dropShadow_80_1015" result="shape"/>
</filter>
<linearGradient id="paint0_linear_80_1015" x1="49.0596" y1="5.5" x2="49.0596" y2="80.5" gradientUnits="userSpaceOnUse">
<stop stop-color="#00E7F7"/>
<stop offset="0.0001" stop-color="#FB5160"/>
<stop offset="1" stop-color="#ED2E4C"/>
</linearGradient>
</defs>
</svg>
