<svg width="19" height="19" viewBox="0 0 19 19" fill="none" xmlns="http://www.w3.org/2000/svg">
<path d="M17.8516 0.821331C17.7504 0.720586 17.6225 0.650834 17.483 0.620276C17.3435 0.589718 17.1982 0.599625 17.0641 0.648831L0.564092 6.64883C0.421793 6.70281 0.299282 6.79879 0.212831 6.92405C0.126379 7.0493 0.0800781 7.19789 0.0800781 7.35008C0.0800781 7.50227 0.126379 7.65086 0.212831 7.77611C0.299282 7.90137 0.421793 7.99736 0.564092 8.05133L7.00659 10.6238L11.7616 5.85383L12.8191 6.91133L8.04159 11.6888L10.6216 18.1313C10.6772 18.2709 10.7734 18.3905 10.8977 18.4748C11.0221 18.559 11.1689 18.604 11.3191 18.6038C11.4707 18.6007 11.6177 18.5518 11.7409 18.4634C11.8641 18.375 11.9576 18.2514 12.0091 18.1088L18.0091 1.60883C18.0602 1.47614 18.0725 1.33165 18.0446 1.19222C18.0167 1.05279 17.9498 0.924164 17.8516 0.821331Z" fill="#0F1828"/>
</svg>
