<svg width="24" height="24" viewBox="0 0 24 24" fill="none" xmlns="http://www.w3.org/2000/svg">
<path d="M8.82586 20.7201C7.24081 20.2469 5.80528 19.3713 4.65903 18.1786C5.02783 17.7412 5.25773 17.2037 5.31932 16.6348C5.3809 16.066 5.27136 15.4918 5.00472 14.9855C4.73808 14.4793 4.32646 14.0642 3.82254 13.7932C3.31862 13.5223 2.74532 13.4078 2.17599 13.4646C2.04629 12.8292 1.98111 12.1824 1.98145 11.534C1.98145 10.5325 2.13478 9.56654 2.42036 8.659H2.46061C2.94925 8.65916 3.42986 8.53477 3.85707 8.29759C4.28427 8.06041 4.64398 7.71825 4.90222 7.30343C5.16046 6.88862 5.30872 6.41482 5.33299 5.92679C5.35726 5.43876 5.25674 4.9526 5.04093 4.51421C6.16438 3.4681 7.52304 2.70767 9.0022 2.2971C9.24292 2.76975 9.60971 3.1666 10.062 3.44373C10.5142 3.72085 11.0344 3.86746 11.5648 3.86733C12.0952 3.86746 12.6153 3.72085 13.0676 3.44373C13.5199 3.1666 13.8866 2.76975 14.1274 2.2971C15.6065 2.70767 16.9652 3.4681 18.0886 4.51421C17.8713 4.95567 17.7708 5.44554 17.7969 5.93693C17.8231 6.42832 17.9749 6.90478 18.2378 7.3207C18.5008 7.73662 18.8661 8.07809 19.2988 8.31241C19.7316 8.54674 20.2172 8.66607 20.7092 8.659C21.001 9.58941 21.149 10.5589 21.1481 11.534C21.1481 12.1953 21.081 12.8412 20.9536 13.4646C20.3842 13.4078 19.8109 13.5223 19.307 13.7932C18.8031 14.0642 18.3915 14.4793 18.1248 14.9855C17.8582 15.4918 17.7487 16.066 17.8102 16.6348C17.8718 17.2037 18.1017 17.7412 18.4705 18.1786C17.3243 19.3713 15.8888 20.2469 14.3037 20.7201C14.1176 20.14 13.752 19.6339 13.2598 19.2749C12.7676 18.9159 12.174 18.7224 11.5648 18.7224C10.9555 18.7224 10.362 18.9159 9.86976 19.2749C9.37752 19.6339 9.012 20.14 8.82586 20.7201Z" fill="#2F88FF" stroke="black" stroke-linejoin="round"/>
<path d="M11.5647 14.8882C12.0052 14.8882 12.4414 14.8014 12.8483 14.6329C13.2553 14.4643 13.625 14.2172 13.9365 13.9058C14.248 13.5943 14.495 13.2245 14.6636 12.8176C14.8321 12.4106 14.9189 11.9745 14.9189 11.534C14.9189 11.0935 14.8321 10.6574 14.6636 10.2504C14.495 9.84348 14.248 9.47372 13.9365 9.16225C13.625 8.85079 13.2553 8.60372 12.8483 8.43516C12.4414 8.2666 12.0052 8.17984 11.5647 8.17984C10.6752 8.17984 9.82201 8.53322 9.19298 9.16225C8.56396 9.79128 8.21057 10.6444 8.21057 11.534C8.21057 12.4236 8.56396 13.2767 9.19298 13.9058C9.82201 14.5348 10.6752 14.8882 11.5647 14.8882Z" fill="#43CCF8" stroke="white" stroke-linejoin="round"/>
</svg>
