<svg width="101" height="32" viewBox="0 0 101 32" fill="none" xmlns="http://www.w3.org/2000/svg">
<rect x="0.371094" y="0.603821" width="100" height="31" rx="15.5" fill="white" fill-opacity="0.16"/>
<path d="M33.0249 19.7863C34.7544 19.7863 35.8877 18.884 35.8877 17.4338V17.4284C35.8877 16.3112 35.2485 15.6613 33.6318 15.3015L32.7725 15.1081C31.7197 14.8771 31.2954 14.4582 31.2954 13.8405V13.8351C31.2954 13.0241 32.042 12.5676 33.0088 12.5622C34.0186 12.5568 34.6631 13.0617 34.7705 13.7438L34.7812 13.8137H35.748L35.7427 13.7385C35.6621 12.5837 34.5825 11.6706 33.0356 11.6706C31.4351 11.6706 30.3125 12.5783 30.3071 13.862V13.8674C30.3071 14.9899 30.9785 15.7043 32.5308 16.048L33.3901 16.236C34.4536 16.4724 34.8994 16.9128 34.8994 17.5573V17.5627C34.8994 18.3522 34.1313 18.8947 33.0786 18.8947C31.9614 18.8947 31.1558 18.4059 31.0859 17.6325L31.0806 17.5734H30.1138L30.1191 17.6325C30.2319 18.8947 31.3276 19.7863 33.0249 19.7863ZM37.3246 19.6037H38.2591V16.1769C38.2591 15.1618 38.8446 14.5388 39.7684 14.5388C40.6922 14.5388 41.1219 15.0383 41.1219 16.0803V19.6037H42.0565V15.8547C42.0565 14.4797 41.3314 13.7116 40.0316 13.7116C39.1776 13.7116 38.6351 14.0715 38.3451 14.6838H38.2591V11.5148H37.3246V19.6037ZM45.2282 19.7057C46.0071 19.7057 46.614 19.3674 46.9792 18.7497H47.0652V19.6037H47.9997V15.6398C47.9997 14.4367 47.2102 13.7116 45.7976 13.7116C44.5622 13.7116 43.6814 14.3239 43.531 15.2316L43.5256 15.2639H44.4602L44.4655 15.2477C44.6159 14.7966 45.0725 14.5388 45.7654 14.5388C46.6301 14.5388 47.0652 14.9255 47.0652 15.6398V16.1662L45.4055 16.2682C44.0573 16.3488 43.2946 16.945 43.2946 17.9763V17.987C43.2946 19.0397 44.1272 19.7057 45.2282 19.7057ZM44.2507 17.9655V17.9548C44.2507 17.3801 44.6374 17.0685 45.5183 17.0148L47.0652 16.9182V17.4445C47.0652 18.2717 46.3723 18.8947 45.4216 18.8947C44.7502 18.8947 44.2507 18.551 44.2507 17.9655ZM49.5977 19.6037H50.5323V16.0158C50.5323 15.1672 51.1661 14.6032 52.0577 14.6032C52.2618 14.6032 52.439 14.6247 52.6324 14.6569V13.7492C52.5411 13.7331 52.3424 13.7116 52.1651 13.7116C51.3809 13.7116 50.8385 14.0661 50.6182 14.673H50.5323V13.8137H49.5977V19.6037ZM55.8793 19.7057C57.2436 19.7057 58.0707 18.9323 58.2695 18.1481L58.2802 18.1052H57.3456L57.3242 18.1535C57.1684 18.5026 56.685 18.8732 55.9008 18.8732C54.8696 18.8732 54.2089 18.175 54.1821 16.9772H58.35V16.612C58.35 14.8825 57.394 13.7116 55.8203 13.7116C54.2465 13.7116 53.226 14.9362 53.226 16.7248V16.7302C53.226 18.5456 54.225 19.7057 55.8793 19.7057ZM55.8149 14.5441C56.6689 14.5441 57.3027 15.0866 57.3994 16.2307H54.1982C54.3002 15.1296 54.9555 14.5441 55.8149 14.5441ZM66.0041 19.7863C67.986 19.7863 69.2965 18.5187 69.2965 16.6066V15.6613H66.1545V16.5099H68.3297V16.6979C68.3297 18.0085 67.3952 18.8947 66.0094 18.8947C64.4518 18.8947 63.4796 17.6808 63.4796 15.7311V15.7204C63.4796 13.7975 64.4679 12.5622 66.0041 12.5622C67.1588 12.5622 67.9377 13.11 68.2546 14.1091L68.2707 14.1628H69.2482L69.2375 14.1091C68.9313 12.6374 67.7228 11.6706 66.0041 11.6706C63.8825 11.6706 62.4914 13.2766 62.4914 15.7204V15.7311C62.4914 18.2072 63.861 19.7863 66.0041 19.7863ZM71.2759 12.6965C71.6304 12.6965 71.9204 12.4064 71.9204 12.0519C71.9204 11.6974 71.6304 11.4074 71.2759 11.4074C70.9214 11.4074 70.6314 11.6974 70.6314 12.0519C70.6314 12.4064 70.9214 12.6965 71.2759 12.6965ZM70.8032 19.6037H71.7378V13.8137H70.8032V19.6037ZM73.7762 19.6037H74.7108V14.5871H76.0267V13.8137H74.7108V13.196C74.7108 12.5622 74.9794 12.2346 75.6454 12.2346C75.8119 12.2346 75.9677 12.2399 76.0804 12.2614V11.5148C75.8871 11.4772 75.683 11.4611 75.4574 11.4611C74.3563 11.4611 73.7762 12.0143 73.7762 13.1691V13.8137H72.8148V14.5871H73.7762V19.6037ZM79.322 19.6467C79.5046 19.6467 79.6819 19.6252 79.8645 19.593V18.798C79.6926 18.8141 79.6013 18.8195 79.4348 18.8195C78.8332 18.8195 78.5969 18.5456 78.5969 17.8635V14.5871H79.8645V13.8137H78.5969V12.3151H77.6301V13.8137H76.717V14.5871H77.6301V18.0998C77.6301 19.2062 78.1296 19.6467 79.322 19.6467ZM83.0309 19.7057C84.3468 19.7057 85.3512 18.9914 85.3512 17.9601V17.9494C85.3512 17.1223 84.8248 16.6496 83.7345 16.3864L82.8429 16.1716C82.1607 16.0051 81.8707 15.758 81.8707 15.3659V15.3552C81.8707 14.8449 82.3756 14.4904 83.0631 14.4904C83.7613 14.4904 84.2125 14.8073 84.336 15.2639H85.2545C85.1256 14.3185 84.2823 13.7116 83.0685 13.7116C81.8385 13.7116 80.9146 14.4367 80.9146 15.3981V15.4035C80.9146 16.236 81.4034 16.7087 82.4884 16.9665L83.3854 17.1813C84.0997 17.3532 84.3951 17.6271 84.3951 18.0192V18.03C84.3951 18.5563 83.8419 18.9269 83.0631 18.9269C82.3219 18.9269 81.86 18.61 81.7042 18.1266H80.7481C80.8556 19.0827 81.7418 19.7057 83.0309 19.7057Z" fill="white"/>
<path d="M22.1009 21.3286V16.1037M22.1009 16.1037V10.8788M22.1009 16.1037H27.3258M22.1009 16.1037H16.876" stroke="white" stroke-linecap="round"/>
</svg>
