<svg width="50" height="69" viewBox="0 0 50 69" xmlns="http://www.w3.org/2000/svg">
<rect y="0.605957" width="50" height="50" rx="25" fill="white" fill-opacity="0.16"/>
<path d="M31.4053 32.1509C31.5898 32.2876 31.8496 32.2329 31.9863 32.0278C33.1484 30.2778 33.9277 28.1792 33.9277 25.6704C33.9277 23.1616 33.1348 21.0698 31.9863 19.313C31.8496 19.1011 31.5898 19.0532 31.4053 19.1831C31.2139 19.3198 31.1797 19.5728 31.3232 19.7915C32.3828 21.4116 33.1143 23.3257 33.1143 25.6704C33.1143 28.0083 32.3828 29.936 31.3232 31.5493C31.1797 31.7681 31.2139 32.021 31.4053 32.1509ZM23.3457 31.5767C23.7354 31.5767 23.9951 31.2964 23.9951 30.9136V20.4614C23.9951 20.0786 23.7354 19.771 23.3389 19.771C23.0654 19.771 22.8672 19.894 22.6006 20.1538L19.6064 22.9976C19.5586 23.0522 19.4902 23.0728 19.4014 23.0728H17.3643C16.5645 23.0728 16.0791 23.5649 16.0791 24.4058V26.9829C16.0791 27.8237 16.5645 28.3159 17.3643 28.3159H19.4014C19.4902 28.3159 19.5586 28.3364 19.6064 28.3911L22.6006 31.2212C22.8467 31.4604 23.0723 31.5767 23.3457 31.5767ZM28.9717 30.3325C29.1699 30.4692 29.4092 30.4214 29.5527 30.2231C30.4277 29.0474 30.9609 27.3726 30.9609 25.6704C30.9609 23.9614 30.4346 22.2798 29.5527 21.1177C29.4092 20.9126 29.1699 20.8716 28.9717 21.0015C28.7803 21.1382 28.7461 21.3843 28.9033 21.603C29.6963 22.6968 30.1475 24.146 30.1475 25.6704C30.1475 27.1948 29.6895 28.6372 28.9033 29.7378C28.7529 29.9565 28.7803 30.2026 28.9717 30.3325ZM26.5723 28.5415C26.7568 28.6646 26.9961 28.6304 27.1396 28.4253C27.666 27.7417 28.001 26.7505 28.001 25.6704C28.001 24.5903 27.666 23.5991 27.1396 22.9155C26.9961 22.7104 26.7568 22.6694 26.5723 22.7993C26.3604 22.9497 26.3262 23.2026 26.4902 23.4214C26.9482 24.0435 27.1807 24.8022 27.1807 25.6704C27.1807 26.5386 26.9414 27.2905 26.4902 27.9126C26.333 28.1382 26.3604 28.3911 26.5723 28.5415Z" fill="white"/>
<!-- <path d="M7.72893 66.7886C9.45842 66.7886 10.5917 65.8862 10.5917 64.436V64.4307C10.5917 63.3135 9.95256 62.6636 8.33586 62.3037L7.47648 62.1104C6.42375 61.8794 5.99943 61.4604 5.99943 60.8428V60.8374C5.99943 60.0264 6.74602 59.5698 7.71281 59.5645C8.72258 59.5591 9.36711 60.064 9.47453 60.7461L9.48527 60.8159H10.4521L10.4467 60.7407C10.3661 59.5859 9.28654 58.6729 7.73967 58.6729C6.13908 58.6729 5.01652 59.5806 5.01115 60.8643V60.8696C5.01115 61.9922 5.68254 62.7065 7.23479 63.0503L8.09416 63.2383C9.15764 63.4746 9.60344 63.915 9.60344 64.5596V64.5649C9.60344 65.3545 8.83537 65.897 7.78264 65.897C6.66545 65.897 5.85979 65.4082 5.78996 64.6348L5.78459 64.5757H4.81779L4.82316 64.6348C4.93596 65.897 6.03166 66.7886 7.72893 66.7886ZM11.9749 68.5396H12.9095V65.6929H12.9954C13.3123 66.3105 14.0052 66.708 14.8001 66.708C16.2718 66.708 17.2278 65.5317 17.2278 63.7163V63.7056C17.2278 61.9009 16.2664 60.7139 14.8001 60.7139C13.9944 60.7139 13.3499 61.0952 12.9954 61.7397H12.9095V60.8159H11.9749V68.5396ZM14.5852 65.8809C13.5325 65.8809 12.888 65.0537 12.888 63.7163V63.7056C12.888 62.3682 13.5325 61.541 14.5852 61.541C15.6433 61.541 16.2718 62.3574 16.2718 63.7056V63.7163C16.2718 65.0645 15.6433 65.8809 14.5852 65.8809ZM20.942 66.708C22.3063 66.708 23.1334 65.9346 23.3322 65.1504L23.3429 65.1074H22.4083L22.3869 65.1558C22.2311 65.5049 21.7477 65.8755 20.9635 65.8755C19.9323 65.8755 19.2716 65.1772 19.2448 63.9795H23.4127V63.6143C23.4127 61.8848 22.4567 60.7139 20.8829 60.7139C19.3092 60.7139 18.2887 61.9385 18.2887 63.7271V63.7324C18.2887 65.5479 19.2877 66.708 20.942 66.708ZM20.8776 61.5464C21.7316 61.5464 22.3654 62.0889 22.4621 63.2329H19.2609C19.3629 62.1318 20.0182 61.5464 20.8776 61.5464ZM26.3428 66.708C27.1216 66.708 27.7285 66.3696 28.0938 65.752H28.1797V66.606H29.1143V62.6421C29.1143 61.439 28.3247 60.7139 26.9121 60.7139C25.6768 60.7139 24.7959 61.3262 24.6455 62.2339L24.6401 62.2661H25.5747L25.5801 62.25C25.7305 61.7988 26.187 61.541 26.8799 61.541C27.7446 61.541 28.1797 61.9277 28.1797 62.6421V63.1685L26.52 63.2705C25.1719 63.3511 24.4092 63.9473 24.4092 64.9785V64.9893C24.4092 66.042 25.2417 66.708 26.3428 66.708ZM25.3652 64.9678V64.957C25.3652 64.3823 25.752 64.0708 26.6328 64.0171L28.1797 63.9204V64.4468C28.1797 65.2739 27.4868 65.897 26.5361 65.897C25.8647 65.897 25.3652 65.5532 25.3652 64.9678ZM30.766 66.606H31.7005V64.4092L32.243 63.8828L34.4129 66.606H35.5892L32.8983 63.249L35.4227 60.8159H34.2894L31.7865 63.3457H31.7005V58.5171H30.766V66.606ZM38.6696 66.708C40.0339 66.708 40.8611 65.9346 41.0598 65.1504L41.0705 65.1074H40.136L40.1145 65.1558C39.9587 65.5049 39.4753 65.8755 38.6911 65.8755C37.6599 65.8755 36.9992 65.1772 36.9724 63.9795H41.1404V63.6143C41.1404 61.8848 40.1843 60.7139 38.6106 60.7139C37.0368 60.7139 36.0163 61.9385 36.0163 63.7271V63.7324C36.0163 65.5479 37.0154 66.708 38.6696 66.708ZM38.6052 61.5464C39.4592 61.5464 40.093 62.0889 40.1897 63.2329H36.9885C37.0905 62.1318 37.7458 61.5464 38.6052 61.5464ZM42.4805 66.606H43.4151V63.0181C43.4151 62.1694 44.0489 61.6055 44.9405 61.6055C45.1446 61.6055 45.3219 61.627 45.5152 61.6592V60.7515C45.4239 60.7354 45.2252 60.7139 45.0479 60.7139C44.2637 60.7139 43.7213 61.0684 43.5011 61.6753H43.4151V60.8159H42.4805V66.606Z" fill="white"/> -->
</svg>
