<svg width="100" height="32" viewBox="0 0 100 32" fill="none" xmlns="http://www.w3.org/2000/svg">
<rect y="0.603821" width="100" height="31" rx="15.5" fill="white" fill-opacity="0.16"/>
<path d="M44.4683 19.7863C46.1978 19.7863 47.3311 18.884 47.3311 17.4338V17.4284C47.3311 16.3112 46.6919 15.6613 45.0752 15.3015L44.2158 15.1081C43.1631 14.8771 42.7388 14.4582 42.7388 13.8405V13.8351C42.7388 13.0241 43.4854 12.5676 44.4521 12.5622C45.4619 12.5568 46.1064 13.0617 46.2139 13.7438L46.2246 13.8137H47.1914L47.186 13.7385C47.1055 12.5837 46.0259 11.6706 44.479 11.6706C42.8784 11.6706 41.7559 12.5783 41.7505 13.862V13.8674C41.7505 14.9899 42.4219 15.7043 43.9741 16.048L44.8335 16.236C45.897 16.4724 46.3428 16.9128 46.3428 17.5573V17.5627C46.3428 18.3522 45.5747 18.8947 44.522 18.8947C43.4048 18.8947 42.5991 18.4059 42.5293 17.6325L42.5239 17.5734H41.5571L41.5625 17.6325C41.6753 18.8947 42.771 19.7863 44.4683 19.7863ZM48.7142 21.5373H49.6488V18.6906H49.7347C50.0516 19.3083 50.7445 19.7057 51.5394 19.7057C53.0111 19.7057 53.9671 18.5295 53.9671 16.7141V16.7033C53.9671 14.8986 53.0057 13.7116 51.5394 13.7116C50.7337 13.7116 50.0892 14.093 49.7347 14.7375H49.6488V13.8137H48.7142V21.5373ZM51.3246 18.8786C50.2718 18.8786 49.6273 18.0515 49.6273 16.7141V16.7033C49.6273 15.3659 50.2718 14.5388 51.3246 14.5388C52.3827 14.5388 53.0111 15.3552 53.0111 16.7033V16.7141C53.0111 18.0622 52.3827 18.8786 51.3246 18.8786ZM57.6814 19.7057C59.0456 19.7057 59.8728 18.9323 60.0715 18.1481L60.0822 18.1052H59.1477L59.1262 18.1535C58.9704 18.5026 58.487 18.8732 57.7029 18.8732C56.6716 18.8732 56.011 18.175 55.9841 16.9772H60.1521V16.612C60.1521 14.8825 59.196 13.7116 57.6223 13.7116C56.0486 13.7116 55.028 14.9362 55.028 16.7248V16.7302C55.028 18.5456 56.0271 19.7057 57.6814 19.7057ZM57.6169 14.5441C58.4709 14.5441 59.1047 15.0866 59.2014 16.2307H56.0002C56.1023 15.1296 56.7575 14.5441 57.6169 14.5441ZM63.0821 19.7057C63.8609 19.7057 64.4679 19.3674 64.8331 18.7497H64.919V19.6037H65.8536V15.6398C65.8536 14.4367 65.064 13.7116 63.6514 13.7116C62.4161 13.7116 61.5352 14.3239 61.3848 15.2316L61.3795 15.2639H62.314L62.3194 15.2477C62.4698 14.7966 62.9263 14.5388 63.6192 14.5388C64.484 14.5388 64.919 14.9255 64.919 15.6398V16.1662L63.2594 16.2682C61.9112 16.3488 61.1485 16.945 61.1485 17.9763V17.987C61.1485 19.0397 61.981 19.7057 63.0821 19.7057ZM62.1046 17.9655V17.9548C62.1046 17.3801 62.4913 17.0685 63.3721 17.0148L64.919 16.9182V17.4445C64.919 18.2717 64.2262 18.8947 63.2755 18.8947C62.6041 18.8947 62.1046 18.551 62.1046 17.9655ZM67.5053 19.6037H68.4399V17.4069L68.9824 16.8806L71.1523 19.6037H72.3286L69.6376 16.2468L72.1621 13.8137H71.0287L68.5258 16.3434H68.4399V11.5148H67.5053V19.6037ZM75.409 19.7057C76.7732 19.7057 77.6004 18.9323 77.7991 18.1481L77.8099 18.1052H76.8753L76.8538 18.1535C76.698 18.5026 76.2146 18.8732 75.4305 18.8732C74.3992 18.8732 73.7386 18.175 73.7117 16.9772H77.8797V16.612C77.8797 14.8825 76.9236 13.7116 75.3499 13.7116C73.7762 13.7116 72.7557 14.9362 72.7557 16.7248V16.7302C72.7557 18.5456 73.7547 19.7057 75.409 19.7057ZM75.3445 14.5441C76.1985 14.5441 76.8323 15.0866 76.929 16.2307H73.7278C73.8299 15.1296 74.4852 14.5441 75.3445 14.5441ZM79.2199 19.6037H80.1545V16.0158C80.1545 15.1672 80.7882 14.6032 81.6798 14.6032C81.8839 14.6032 82.0612 14.6247 82.2546 14.6569V13.7492C82.1632 13.7331 81.9645 13.7116 81.7873 13.7116C81.0031 13.7116 80.4606 14.0661 80.2404 14.673H80.1545V13.8137H79.2199V19.6037Z" fill="white"/>
<path d="M32.0615 23.1174C32.246 23.2541 32.5058 23.1994 32.6425 22.9943C33.8046 21.2443 34.5839 19.1457 34.5839 16.6369C34.5839 14.1281 33.791 12.0363 32.6425 10.2795C32.5058 10.0676 32.246 10.0197 32.0615 10.1496C31.8701 10.2863 31.8359 10.5392 31.9794 10.758C33.039 12.3781 33.7704 14.2922 33.7704 16.6369C33.7704 18.9748 33.039 20.9025 31.9794 22.5158C31.8359 22.7346 31.8701 22.9875 32.0615 23.1174ZM24.0019 22.5432C24.3915 22.5432 24.6513 22.2629 24.6513 21.8801V11.4279C24.6513 11.0451 24.3915 10.7375 23.9951 10.7375C23.7216 10.7375 23.5234 10.8605 23.2568 11.1203L20.2626 13.9641C20.2148 14.0187 20.1464 14.0392 20.0576 14.0392H18.0204C17.2206 14.0392 16.7353 14.5314 16.7353 15.3723V17.9494C16.7353 18.7902 17.2206 19.2824 18.0204 19.2824H20.0576C20.1464 19.2824 20.2148 19.3029 20.2626 19.3576L23.2568 22.1877C23.5029 22.4269 23.7285 22.5432 24.0019 22.5432ZM29.6279 21.299C29.8261 21.4357 30.0654 21.3879 30.2089 21.1896C31.0839 20.0139 31.6171 18.3391 31.6171 16.6369C31.6171 14.9279 31.0908 13.2463 30.2089 12.0842C30.0654 11.8791 29.8261 11.8381 29.6279 11.968C29.4365 12.1047 29.4023 12.3508 29.5595 12.5695C30.3525 13.6633 30.8037 15.1125 30.8037 16.6369C30.8037 18.1613 30.3456 19.6037 29.5595 20.7043C29.4091 20.923 29.4365 21.1691 29.6279 21.299ZM27.2285 19.508C27.413 19.631 27.6523 19.5969 27.7958 19.3918C28.3222 18.7082 28.6572 17.717 28.6572 16.6369C28.6572 15.5568 28.3222 14.5656 27.7958 13.882C27.6523 13.6769 27.413 13.6359 27.2285 13.7658C27.0165 13.9162 26.9824 14.1691 27.1464 14.3879C27.6044 15.0099 27.8369 15.7687 27.8369 16.6369C27.8369 17.5051 27.5976 18.257 27.1464 18.8791C26.9892 19.1047 27.0165 19.3576 27.2285 19.508Z" fill="white"/>
</svg>
