<svg width="16" height="17" viewBox="0 0 16 17" fill="none" xmlns="http://www.w3.org/2000/svg">
<circle cx="1.49823" cy="11.7197" r="0.486881" fill="#FF4B4E"/>
<circle cx="3.75556" cy="6.0643" r="0.486881" fill="#FFCA54"/>
<circle cx="10.439" cy="4.89023" r="0.486881" fill="#00CDB3"/>
<circle cx="14.5646" cy="11.7197" r="0.486881" fill="#57BAE5"/>
<circle cx="5.68695" cy="2.42365" r="0.486881" fill="#57BAE5"/>
<path d="M14.0518 8.35249L9.91991 7.75157L8.07327 4.00566C7.99503 3.84788 7.83414 3.74808 7.65803 3.74808C7.48193 3.74808 7.32103 3.84788 7.24279 4.00566L5.3947 7.75011L1.26279 8.35103C1.08857 8.37655 0.943848 8.49858 0.889284 8.666C0.834719 8.83341 0.879732 9.01729 1.00546 9.14057L3.99546 12.0545L3.28927 16.1689C3.25954 16.3428 3.33107 16.5184 3.4738 16.6221C3.61653 16.7257 3.80572 16.7393 3.96183 16.6572L7.65657 14.7141C11.6774 16.8283 11.4054 16.7099 11.5677 16.7099C11.704 16.7096 11.8334 16.6494 11.9212 16.5452C12.0091 16.441 12.0467 16.3033 12.0239 16.1689L11.3177 12.0545L14.3077 9.14057C14.4325 9.01739 14.4771 8.83435 14.4229 8.66758C14.3688 8.50081 14.2252 8.37887 14.0518 8.35249V8.35249Z" fill="#FFCA54"/>
<path d="M3.20184 4.7031C2.92111 4.649 2.4357 4.29956 2.60091 3.3565C2.66086 3.01291 2.58629 2.98367 2.18275 2.89301C1.77921 2.80236 1.18998 2.66785 1.14612 1.83153C1.13582 1.73366 1.18037 1.63809 1.26196 1.58306C1.34354 1.52803 1.44884 1.52252 1.53572 1.56873C1.62261 1.61495 1.67689 1.70534 1.67686 1.80375C1.69879 2.22045 1.89472 2.28332 2.29972 2.37543C2.66378 2.45877 3.27348 2.59621 3.12435 3.45008C3.0103 4.09633 3.29834 4.18113 3.30126 4.18113C3.39907 4.19408 3.48168 4.26009 3.5159 4.35263C3.55012 4.44516 3.53034 4.54904 3.46449 4.62252C3.39865 4.69599 3.29756 4.72701 3.20184 4.7031V4.7031Z" fill="#F99830"/>
<circle cx="1.66049" cy="5.37856" r="0.345057" fill="#57BAE5"/>
<circle cx="13.0666" cy="12.4098" r="0.345057" fill="#00CDB3"/>
<circle cx="1.96737" cy="14.5547" r="0.345057" fill="#FFCA54"/>
<path d="M12.1099 4.93259C12.0063 4.82874 12.0063 4.66069 12.1099 4.55683L12.4798 4.17669C12.5835 4.08038 12.7444 4.08211 12.8461 4.18061C12.9477 4.27912 12.9544 4.43994 12.8614 4.5466L12.4915 4.92674C12.4422 4.97906 12.3738 5.0092 12.3019 5.0103C12.23 5.0114 12.1608 4.98337 12.1099 4.93259Z" fill="#FF4B4E"/>
<path d="M4.9267 4.7864L4.43543 4.58756C4.30784 4.52739 4.24937 4.37811 4.30216 4.24729C4.35496 4.11647 4.50066 4.04958 4.63428 4.09483L5.12555 4.29367C5.25314 4.35384 5.31161 4.50313 5.25882 4.63394C5.20602 4.76476 5.06032 4.83165 4.9267 4.7864Z" fill="#FF4B4E"/>
<path d="M2.50104 13.5137L2.00977 13.3149C1.88218 13.2547 1.82371 13.1054 1.87651 12.9746C1.9293 12.8438 2.075 12.7769 2.20862 12.8222L2.69989 13.021C2.82748 13.0812 2.88595 13.2305 2.83316 13.3613C2.78036 13.4921 2.63466 13.559 2.50104 13.5137V13.5137Z" fill="#00CDB3"/>
<path d="M13.7083 14.4202L13.2171 14.2214C13.0895 14.1612 13.031 14.0119 13.0838 13.8811C13.1366 13.7503 13.2823 13.6834 13.4159 13.7286L13.9072 13.9275C14.0348 13.9877 14.0932 14.1369 14.0404 14.2678C13.9876 14.3986 13.8419 14.4655 13.7083 14.4202V14.4202Z" fill="#57BAE5"/>
<path d="M10.5531 0.331397C10.5213 0.193463 10.3871 0.104562 10.2477 0.129095C10.1083 0.153628 10.0125 0.283007 10.0297 0.42351C10.1028 0.834361 9.92589 0.938171 9.55013 1.11947C9.21385 1.28176 8.65094 1.5581 8.98722 2.35056C9.24309 2.95734 8.97845 3.10355 8.97845 3.10355C8.90388 3.15326 8.66848 3.23952 8.76937 3.47931C8.94336 3.89308 10.0195 3.42813 9.47557 2.14294C9.33959 1.82128 9.40538 1.77742 9.77968 1.59612C10.3321 1.44641 10.6716 0.891385 10.5531 0.331397V0.331397Z" fill="#F99830"/>
<path d="M14.5998 4.20307C14.4795 4.11934 14.314 4.14876 14.2299 4.26886C14.0665 4.54281 13.9749 4.85363 13.9638 5.17244C13.9068 5.67687 13.8849 5.86548 13.357 5.83185C12.8937 5.7588 12.4217 5.89419 12.0675 6.20177C11.7283 6.54975 11.74 7.02932 12.0602 7.0337C12.3263 7.0337 12.3438 6.75444 12.3438 6.75444C12.3438 6.75444 12.3994 6.30265 13.3234 6.36114C14.7855 6.45325 14.3133 5.07595 14.6642 4.57152C14.7472 4.4518 14.7185 4.28756 14.5998 4.20307V4.20307Z" fill="#F99830"/>
<path d="M6.56885 7.22376L8.11283 4.09486L8.07335 4.01445C7.99511 3.85667 7.83422 3.75687 7.65811 3.75687C7.48201 3.75687 7.32111 3.85667 7.24288 4.01445L5.39478 7.75889L6.02056 7.64777C6.25798 7.5965 6.4595 7.44065 6.56885 7.22376Z" fill="#F99830"/>
<path d="M4.28472 15.9935L4.91342 12.3294C4.95722 12.0762 4.88774 11.8164 4.72335 11.6188L2.00383 8.96512C1.90109 8.86336 1.85173 8.71947 1.87037 8.57607C1.88902 8.43267 1.97352 8.30618 2.09887 8.23407L1.26401 8.35542C1.08979 8.38094 0.945069 8.50298 0.890504 8.67039C0.835939 8.83781 0.880952 9.02168 1.00668 9.14496L3.99668 12.0589L3.29049 16.1733C3.26076 16.3472 3.3323 16.5228 3.47502 16.6265C3.61775 16.7301 3.80694 16.7437 3.96305 16.6616L4.43239 16.416C4.31367 16.31 4.25787 16.1503 4.28472 15.9935Z" fill="#F99830"/>
</svg>
