<svg viewBox="0 0 24 21" xmlns="http://www.w3.org/2000/svg">
<path fill-rule="evenodd" clip-rule="evenodd" d="M0.828539 15.74C1.19054 16.401 2.55854 16.432 4.51354 15.948V15.952C7.31935 19.7247 12.4811 20.8441 16.5977 18.5726C20.7143 16.301 22.5194 11.3372 20.8235 6.95197C22.3295 5.51297 23.0635 4.30397 22.6905 3.62897C22.2955 2.91697 20.7355 2.93697 18.5355 3.54297C18.4984 3.55319 18.4611 3.56357 18.4236 3.57411C18.4608 3.56357 18.4978 3.55318 18.5345 3.54297C15.5546 0.721088 11.0884 0.158687 7.50184 2.15369C3.91531 4.1487 2.03766 8.23988 2.86354 12.26C1.24554 13.768 0.441539 15.04 0.828539 15.74ZM17.1263 3.98069C17.0591 4.0037 16.9915 4.02713 16.9235 4.05097C14.5208 2.19241 11.2696 1.86381 8.54357 3.20398C5.81753 4.54415 4.0922 7.31931 4.09654 10.357C4.09654 10.629 4.11054 10.897 4.13754 11.157C4.18393 11.5906 4.26588 12.0197 4.38254 12.44C3.97106 12.7675 3.57812 13.1178 3.20554 13.489C2.59854 14.106 2.32254 14.581 2.46854 14.843C2.61454 15.105 3.10754 15.119 3.87654 14.964C4.36206 14.8592 4.84091 14.7257 5.31054 14.564C7.86447 13.6416 10.3345 12.5017 12.6935 11.157C14.9851 9.9177 17.1745 8.49806 19.2409 6.91149C18.8883 6.17787 18.4255 5.50254 17.8685 4.90897C17.8688 4.90888 17.869 4.90879 17.8693 4.9087C17.5775 4.59826 17.2616 4.31145 16.9245 4.05097C16.9922 4.0271 17.0595 4.00368 17.1263 3.98069ZM19.6675 7.96979C17.6467 9.60053 15.4826 11.0451 13.2015 12.286C10.9063 13.5815 8.49597 14.6618 6.00154 15.513C8.45639 18.393 12.5986 19.1484 15.9121 17.3204C19.2255 15.4924 20.7956 11.5855 19.6685 7.97297C19.6682 7.97191 19.6679 7.97085 19.6675 7.96979ZM20.3615 5.93597C20.0773 5.40495 19.7424 4.90261 19.3615 4.43597C19.7749 4.31504 20.2013 4.2442 20.6315 4.22497C20.9485 4.22497 21.1575 4.29497 21.2395 4.44197C21.3955 4.72397 21.0615 5.25197 20.3615 5.93597Z" />
<path fill-rule="evenodd" d="M4.51354 15.948H4.91354V15.4369L4.41741 15.5597L4.51354 15.948ZM0.828539 15.74L1.17938 15.5478L1.1786 15.5464L0.828539 15.74ZM4.51354 15.952H4.11354V16.0844L4.19257 16.1907L4.51354 15.952ZM16.5977 18.5726L16.791 18.9228L16.5977 18.5726ZM20.8235 6.95197L20.5472 6.66277L20.3542 6.84722L20.4505 7.09624L20.8235 6.95197ZM22.6905 3.62897L23.0406 3.43551L23.0403 3.43492L22.6905 3.62897ZM18.5355 3.54297L18.6417 3.92863L18.6418 3.92861L18.5355 3.54297ZM18.4236 3.57411L18.3145 3.18928L18.5319 3.95918L18.4236 3.57411ZM18.5345 3.54297L18.6417 3.92835L19.3232 3.73889L18.8096 3.25253L18.5345 3.54297ZM7.50184 2.15369L7.30739 1.80413L7.50184 2.15369ZM2.86354 12.26L3.13626 12.5526L3.30055 12.3995L3.25536 12.1795L2.86354 12.26ZM17.1263 3.98069L17.2564 4.35896L16.9968 3.60223L17.1263 3.98069ZM16.9235 4.05097L16.6788 4.36736L16.8508 4.50041L17.056 4.4284L16.9235 4.05097ZM8.54357 3.20398L8.36709 2.84501L8.54357 3.20398ZM4.09654 10.357H4.49654L4.49654 10.3564L4.09654 10.357ZM4.13754 11.157L3.73968 11.1983L3.73981 11.1995L4.13754 11.157ZM4.38254 12.44L4.63167 12.7529L4.83877 12.588L4.76796 12.333L4.38254 12.44ZM3.20554 13.489L2.9232 13.2056L2.9204 13.2084L3.20554 13.489ZM3.87654 14.964L3.95558 15.3561L3.96088 15.355L3.87654 14.964ZM5.31054 14.564L5.44078 14.9422L5.44641 14.9402L5.31054 14.564ZM12.6935 11.157L12.5032 10.805L12.4954 10.8095L12.6935 11.157ZM19.2409 6.91149L19.4845 7.22875L19.7421 7.03096L19.6014 6.73822L19.2409 6.91149ZM17.8685 4.90897L17.7322 4.53291L17.1613 4.73986L17.5768 5.18267L17.8685 4.90897ZM17.8693 4.9087L18.0056 5.28475L18.577 5.07764L18.1608 4.63477L17.8693 4.9087ZM16.9245 4.05097L16.7915 3.67375L16.0985 3.91819L16.68 4.36749L16.9245 4.05097ZM19.6675 7.96979L20.0484 7.84773L19.8704 7.29208L19.4163 7.65851L19.6675 7.96979ZM13.2015 12.286L13.0104 11.9345L13.0049 11.9376L13.2015 12.286ZM6.00154 15.513L5.87236 15.1344L5.31529 15.3245L5.69712 15.7724L6.00154 15.513ZM15.9121 17.3204L16.1053 17.6706L15.9121 17.3204ZM19.6685 7.97297L20.0504 7.85384L20.0495 7.85091L19.6685 7.97297ZM19.3615 4.43597L19.2492 4.05206L18.6702 4.22147L19.0516 4.68888L19.3615 4.43597ZM20.3615 5.93597L20.0089 6.12475L20.2602 6.59423L20.6411 6.22206L20.3615 5.93597ZM20.6315 4.22497V3.82497H20.6226L20.6137 3.82537L20.6315 4.22497ZM21.2395 4.44197L21.5896 4.24834L21.5889 4.24711L21.2395 4.44197ZM4.41741 15.5597C3.45661 15.7976 2.66868 15.901 2.09256 15.8738C1.48895 15.8452 1.25332 15.6829 1.17937 15.5478L0.477706 15.9321C0.765763 16.4581 1.39513 16.6417 2.05477 16.6729C2.7419 16.7054 3.61547 16.5824 4.60967 16.3362L4.41741 15.5597ZM4.91354 15.952V15.948H4.11354V15.952H4.91354ZM16.4045 18.2223C12.4631 20.3972 7.52092 19.3255 4.83451 15.7133L4.19257 16.1907C7.11778 20.124 12.4992 21.291 16.791 18.9228L16.4045 18.2223ZM20.4505 7.09624C22.0742 11.2949 20.3459 16.0474 16.4045 18.2223L16.791 18.9228C21.0828 16.5545 22.9646 11.3796 21.1966 6.80769L20.4505 7.09624ZM22.3404 3.82243C22.4182 3.96316 22.4269 4.26096 22.1147 4.80486C21.817 5.3236 21.2879 5.95499 20.5472 6.66277L21.0999 7.24117C21.8651 6.50995 22.4561 5.81734 22.8086 5.20308C23.1467 4.61398 23.3359 3.96978 23.0406 3.43551L22.3404 3.82243ZM18.6418 3.92861C19.7257 3.63003 20.6246 3.48406 21.2853 3.49169C21.9822 3.49974 22.2579 3.67364 22.3408 3.82302L23.0403 3.43492C22.7282 2.8723 22.0263 2.7002 21.2945 2.69175C20.5264 2.68288 19.5454 2.84991 18.4293 3.15733L18.6418 3.92861ZM18.5319 3.95918C18.5687 3.94883 18.6053 3.93865 18.6417 3.92863L18.4294 3.15731C18.3915 3.16773 18.3535 3.17831 18.3153 3.18905L18.5319 3.95918ZM18.4274 3.15758C18.39 3.16798 18.3524 3.17855 18.3145 3.18928L18.5327 3.95895C18.5693 3.94858 18.6056 3.93839 18.6417 3.92835L18.4274 3.15758ZM7.69628 2.50325C11.1302 0.59314 15.4063 1.13161 18.2595 3.83341L18.8096 3.25253C15.7028 0.310566 11.0465 -0.275767 7.30739 1.80413L7.69628 2.50325ZM3.25536 12.1795C2.46462 8.33045 4.26237 4.41336 7.69628 2.50325L7.30739 1.80413C3.56825 3.88403 1.61069 8.14931 2.47172 12.3405L3.25536 12.1795ZM1.1786 15.5464C1.09742 15.3996 1.09336 15.0842 1.43755 14.5081C1.76464 13.9606 2.33935 13.2953 3.13626 12.5526L2.59082 11.9674C1.76972 12.7326 1.13344 13.4573 0.750779 14.0978C0.385221 14.7097 0.172656 15.3803 0.478476 15.9335L1.1786 15.5464ZM16.9968 3.60223C16.9286 3.62558 16.86 3.64935 16.7911 3.67354L17.056 4.4284C17.123 4.4049 17.1896 4.38182 17.2558 4.35915L16.9968 3.60223ZM17.1683 3.73458C14.6448 1.7826 11.2302 1.43748 8.36709 2.84501L8.72004 3.56295C11.3091 2.29013 14.3968 2.60223 16.6788 4.36736L17.1683 3.73458ZM8.36709 2.84501C5.50403 4.25255 3.69199 7.1672 3.69654 10.3575L4.49654 10.3564C4.49242 7.47143 6.13102 4.83576 8.72004 3.56295L8.36709 2.84501ZM3.69654 10.357C3.69654 10.6426 3.71124 10.9244 3.73968 11.1983L4.5354 11.1157C4.50984 10.8695 4.49654 10.6153 4.49654 10.357H3.69654ZM3.73981 11.1995C3.78853 11.655 3.87459 12.1056 3.99712 12.547L4.76796 12.333C4.65716 11.9338 4.57933 11.5263 4.53527 11.1144L3.73981 11.1995ZM4.13341 12.127C3.71033 12.4638 3.30631 12.8239 2.92322 13.2056L3.48786 13.7723C3.84994 13.4116 4.2318 13.0712 4.63167 12.7529L4.13341 12.127ZM2.9204 13.2084C2.6069 13.5271 2.35711 13.8302 2.20475 14.1053C2.06611 14.3556 1.93779 14.7123 2.11913 15.0377L2.81795 14.6483C2.85329 14.7117 2.78997 14.6998 2.90458 14.4929C3.00547 14.3107 3.19717 14.0678 3.49068 13.7695L2.9204 13.2084ZM2.11913 15.0377C2.29384 15.3512 2.63421 15.4392 2.91058 15.4588C3.20254 15.4796 3.56014 15.4358 3.95557 15.3561L3.7975 14.5719C3.42394 14.6472 3.15053 14.6739 2.96725 14.6608C2.76836 14.6467 2.78924 14.5967 2.81795 14.6483L2.11913 15.0377ZM3.96088 15.355C4.46194 15.2469 4.95611 15.1091 5.44077 14.9422L5.18031 14.1858C4.72571 14.3423 4.26219 14.4716 3.7922 14.573L3.96088 15.355ZM5.44641 14.9402C8.02187 14.01 10.5127 12.8606 12.8916 11.5045L12.4954 10.8095C10.1563 12.1429 7.70707 13.2732 5.17467 14.1878L5.44641 14.9402ZM12.8838 11.5088C15.1941 10.2595 17.4013 8.82825 19.4845 7.22875L18.9973 6.59422C16.9477 8.16787 14.7762 9.57595 12.5033 10.8051L12.8838 11.5088ZM19.6014 6.73822C19.2311 5.96781 18.7451 5.25861 18.1602 4.63527L17.5768 5.18267C18.1059 5.74647 18.5455 6.38793 18.8803 7.08475L19.6014 6.73822ZM18.0049 5.28502L18.0056 5.28475L17.733 4.53265L17.7322 4.53291L18.0049 5.28502ZM18.1608 4.63477C17.8545 4.30892 17.523 4.00786 17.1691 3.73445L16.68 4.36749C17.0003 4.61503 17.3005 4.8876 17.5778 5.18263L18.1608 4.63477ZM17.0576 4.42819C17.1243 4.40467 17.1905 4.3816 17.2564 4.35896L16.9963 3.60243C16.9284 3.62576 16.8601 3.64953 16.7915 3.67375L17.0576 4.42819ZM19.4163 7.65851C17.4143 9.2741 15.2703 10.7053 13.0104 11.9346L13.3927 12.6373C15.6949 11.385 17.8792 9.92697 19.9187 8.28108L19.4163 7.65851ZM13.0049 11.9376C10.7311 13.221 8.34343 14.2912 5.87236 15.1344L6.13072 15.8915C8.64852 15.0324 11.0814 13.942 13.3982 12.6343L13.0049 11.9376ZM5.69712 15.7724C8.27523 18.7971 12.6254 19.5904 16.1053 17.6706L15.7188 16.9701C12.5718 18.7064 8.63754 17.9889 6.30596 15.2535L5.69712 15.7724ZM16.1053 17.6706C19.5851 15.7508 21.234 11.6478 20.0504 7.85384L19.2867 8.0921C20.3571 11.5232 18.8659 15.2339 15.7188 16.9701L16.1053 17.6706ZM20.0495 7.85091C20.0492 7.85016 20.049 7.84943 20.0488 7.84894C20.0486 7.84837 20.0485 7.84804 20.0484 7.84773L19.2866 8.09185C19.2868 8.09261 19.2871 8.09333 19.2872 8.09383C19.2874 8.09439 19.2875 8.09472 19.2876 8.09503L20.0495 7.85091ZM19.0516 4.68888C19.4162 5.13558 19.7368 5.61643 20.0089 6.12475L20.7142 5.74719C20.4178 5.19346 20.0686 4.66965 19.6714 4.18306L19.0516 4.68888ZM20.6137 3.82537C20.1514 3.84603 19.6933 3.92213 19.2492 4.05206L19.4739 4.81988C19.8565 4.70794 20.2511 4.64237 20.6494 4.62457L20.6137 3.82537ZM21.5889 4.24711C21.4866 4.06369 21.3198 3.95841 21.1562 3.90095C20.9957 3.84457 20.8147 3.82497 20.6315 3.82497V4.62497C20.7654 4.62497 20.8473 4.64037 20.8911 4.65574C20.9318 4.67003 20.9105 4.67324 20.8902 4.63683L21.5889 4.24711ZM20.6411 6.22206C21.0004 5.87101 21.2871 5.54 21.4646 5.24387C21.6226 4.9804 21.7822 4.59668 21.5896 4.24834L20.8895 4.63559C20.8528 4.56926 20.9235 4.59054 20.7785 4.83257C20.653 5.04194 20.4227 5.31693 20.082 5.64988L20.6411 6.22206Z" />
</svg>
