<svg width="88" height="86" viewBox="0 0 88 86" fill="none" xmlns="http://www.w3.org/2000/svg">
<g filter="url(#filter0_d_70_696)">
<ellipse cx="43.9539" cy="37.7824" rx="38.5" ry="37.5" fill="url(#paint0_linear_70_696)"/>
</g>
<path d="M55.25 29.375C55.25 28.513 54.9076 27.6864 54.2981 27.0769C53.6886 26.4674 52.862 26.125 52 26.125H32.5C31.638 26.125 30.8114 26.4674 30.2019 27.0769C29.5924 27.6864 29.25 28.513 29.25 29.375V45.625C29.25 46.487 29.5924 47.3136 30.2019 47.9231C30.8114 48.5326 31.638 48.875 32.5 48.875H52C52.862 48.875 53.6886 48.5326 54.2981 47.9231C54.9076 47.3136 55.25 46.487 55.25 45.625V40.2089L61.75 45.625V29.375L55.25 34.7911V29.375ZM48.75 39.125H43.875V44H40.625V39.125H35.75V35.875H40.625V31H43.875V35.875H48.75V39.125Z" fill="white"/>
<defs>
<filter id="filter0_d_70_696" x="0.453857" y="0.282379" width="87" height="85" filterUnits="userSpaceOnUse" color-interpolation-filters="sRGB">
<feFlood flood-opacity="0" result="BackgroundImageFix"/>
<feColorMatrix in="SourceAlpha" type="matrix" values="0 0 0 0 0 0 0 0 0 0 0 0 0 0 0 0 0 0 127 0" result="hardAlpha"/>
<feOffset dy="5"/>
<feGaussianBlur stdDeviation="2.5"/>
<feColorMatrix type="matrix" values="0 0 0 0 0.576471 0 0 0 0 0.576471 0 0 0 0 0.576471 0 0 0 0.25 0"/>
<feBlend mode="normal" in2="BackgroundImageFix" result="effect1_dropShadow_70_696"/>
<feBlend mode="normal" in="SourceGraphic" in2="effect1_dropShadow_70_696" result="shape"/>
</filter>
<linearGradient id="paint0_linear_70_696" x1="43.9539" y1="0.282379" x2="43.9539" y2="75.2824" gradientUnits="userSpaceOnUse">
<stop stop-color="#00E7F7"/>
<stop offset="0.0001" stop-color="#FB5160"/>
<stop offset="1" stop-color="#ED2E4C"/>
</linearGradient>
</defs>
</svg>
