<svg width="75" height="74" viewBox="0 0 75 74" fill="none" xmlns="http://www.w3.org/2000/svg">
<g filter="url(#filter0_d_80_1016)">
<ellipse cx="37.5596" cy="32" rx="27" ry="26.5" fill="white"/>
</g>
<path d="M44.7596 26.1104C44.7596 25.4857 44.5067 24.8866 44.0566 24.4448C43.6065 24.0031 42.9961 23.7549 42.3596 23.7549H27.9596C27.3231 23.7549 26.7126 24.0031 26.2625 24.4448C25.8124 24.8866 25.5596 25.4857 25.5596 26.1104V37.8882C25.5596 38.5129 25.8124 39.1121 26.2625 39.5538C26.7126 39.9956 27.3231 40.2438 27.9596 40.2438H42.3596C42.9961 40.2438 43.6065 39.9956 44.0566 39.5538C44.5067 39.1121 44.7596 38.5129 44.7596 37.8882V33.9627L49.5596 37.8882V26.1104L44.7596 30.036V26.1104ZM39.9596 33.1771H36.3596V36.7104H33.9596V33.1771H30.3596V30.8215H33.9596V27.2882H36.3596V30.8215H39.9596V33.1771Z" fill="url(#paint0_linear_80_1016)"/>
<defs>
<filter id="filter0_d_80_1016" x="0.55957" y="0.5" width="74" height="73" filterUnits="userSpaceOnUse" color-interpolation-filters="sRGB">
<feFlood flood-opacity="0" result="BackgroundImageFix"/>
<feColorMatrix in="SourceAlpha" type="matrix" values="0 0 0 0 0 0 0 0 0 0 0 0 0 0 0 0 0 0 127 0" result="hardAlpha"/>
<feOffset dy="5"/>
<feGaussianBlur stdDeviation="5"/>
<feColorMatrix type="matrix" values="0 0 0 0 0.576471 0 0 0 0 0.576471 0 0 0 0 0.576471 0 0 0 0.25 0"/>
<feBlend mode="normal" in2="BackgroundImageFix" result="effect1_dropShadow_80_1016"/>
<feBlend mode="normal" in="SourceGraphic" in2="effect1_dropShadow_80_1016" result="shape"/>
</filter>
<linearGradient id="paint0_linear_80_1016" x1="37.5596" y1="23.7549" x2="37.5596" y2="40.2438" gradientUnits="userSpaceOnUse">
<stop stop-color="#0D1177"/>
<stop offset="1" stop-color="#753FC1"/>
</linearGradient>
</defs>
</svg>
